<svg width="110" height="110" viewBox="0 0 110 110" fill="none" xmlns="http://www.w3.org/2000/svg">
<rect x="0.5" y="0.5" width="109" height="109" rx="54.5" fill="white"/>
<rect x="0.5" y="0.5" width="109" height="109" rx="54.5" stroke="#DC9D23"/>
<g clip-path="url(#clip0_4591_24378)">
<path d="M18.828 55L23.778 59.95L22.364 61.364L16 55L22.364 48.636L23.778 50.05L18.828 55Z" fill="#DC9D23"/>
</g>
<mask id="path-3-outside-1_4591_24378" maskUnits="userSpaceOnUse" x="46" y="39.5" width="17" height="18" fill="black">
<rect fill="white" x="46" y="39.5" width="17" height="18"/>
<path fill-rule="evenodd" clip-rule="evenodd" d="M58 55.5H57H56H52V54.4635C52 53.6447 48.7998 51.3634 48.7998 51.3634C48.3581 51.0352 48 50.3277 48 49.7704V46.1667C48 45.0213 48.8955 44.0926 50 44.0926V47.2037H51V42.3644C51 41.8868 51.373 41.5 51.8335 41.5C52.754 41.5 53.5 42.2736 53.5 43.2282V42.8829C53.5 42.4053 53.873 42.0185 54.3335 42.0185C55.254 42.0185 56 42.7921 56 43.7467V43.4014C56 42.9239 56.373 42.537 56.8335 42.5C57.754 42.537 58.5 43.3107 58.5 44.2653V43.9199C58.5 43.4424 58.873 43.0556 59.3335 43.0556C60.254 43.0556 61 43.8292 61 44.7838V49.5043C61 50.0542 60.7627 50.8812 60.4745 51.3573C60.4745 51.3573 59 53.6447 59 54.4635V55.5H58Z"/>
</mask>
<path fill-rule="evenodd" clip-rule="evenodd" d="M58 55.5H57H56H52V54.4635C52 53.6447 48.7998 51.3634 48.7998 51.3634C48.3581 51.0352 48 50.3277 48 49.7704V46.1667C48 45.0213 48.8955 44.0926 50 44.0926V47.2037H51V42.3644C51 41.8868 51.373 41.5 51.8335 41.5C52.754 41.5 53.5 42.2736 53.5 43.2282V42.8829C53.5 42.4053 53.873 42.0185 54.3335 42.0185C55.254 42.0185 56 42.7921 56 43.7467V43.4014C56 42.9239 56.373 42.537 56.8335 42.5C57.754 42.537 58.5 43.3107 58.5 44.2653V43.9199C58.5 43.4424 58.873 43.0556 59.3335 43.0556C60.254 43.0556 61 43.8292 61 44.7838V49.5043C61 50.0542 60.7627 50.8812 60.4745 51.3573C60.4745 51.3573 59 53.6447 59 54.4635V55.5H58Z" fill="white"/>
<path fill-rule="evenodd" clip-rule="evenodd" d="M58 55.5H57H56H52V54.4635C52 53.6447 48.7998 51.3634 48.7998 51.3634C48.3581 51.0352 48 50.3277 48 49.7704V46.1667C48 45.0213 48.8955 44.0926 50 44.0926V47.2037H51V42.3644C51 41.8868 51.373 41.5 51.8335 41.5C52.754 41.5 53.5 42.2736 53.5 43.2282V42.8829C53.5 42.4053 53.873 42.0185 54.3335 42.0185C55.254 42.0185 56 42.7921 56 43.7467V43.4014C56 42.9239 56.373 42.537 56.8335 42.5C57.754 42.537 58.5 43.3107 58.5 44.2653V43.9199C58.5 43.4424 58.873 43.0556 59.3335 43.0556C60.254 43.0556 61 43.8292 61 44.7838V49.5043C61 50.0542 60.7627 50.8812 60.4745 51.3573C60.4745 51.3573 59 53.6447 59 54.4635V55.5H58Z" stroke="#333333" stroke-width="2.4" mask="url(#path-3-outside-1_4591_24378)"/>
<g clip-path="url(#clip1_4591_24378)">
<path d="M91.172 55L86.222 50.05L87.636 48.636L94 55L87.636 61.364L86.222 59.95L91.172 55Z" fill="#DC9D23"/>
</g>
<defs>
<clipPath id="clip0_4591_24378">
<rect width="24" height="24" fill="white" transform="translate(8 43)"/>
</clipPath>
<clipPath id="clip1_4591_24378">
<rect width="24" height="24" fill="white" transform="translate(78 43)"/>
</clipPath>
</defs>
</svg>
