<?xml version="1.0" encoding="UTF-8"?>
<svg id="Laag_1" data-name="Laag 1" xmlns="http://www.w3.org/2000/svg" version="1.1" viewBox="0 0 1804.6 689.36">
  <defs>
    <style>
      .cls-1 {
        fill: #000;
        stroke-width: 0px;
      }
    </style>
  </defs>
  <path class="cls-1" d="M872.62,663.6c-9.08-.99-18.18-1.83-27.24-3-57.49-7.41-109.09-29.11-154.3-65.27-61.18-48.93-99.74-112.05-113.91-189.12-26.41-143.63,49-283.86,181.13-343.22,34.48-15.49,70.65-24.37,108.45-26.42,1.97-.11,3.92-.63,5.88-.96,9,0,18,0,27,0,8.91.99,17.84,1.84,26.73,2.99,60,7.74,113.41,30.95,159.78,69.65,58.86,49.14,95.46,111.69,109.03,187.19,29.13,161.99-75.26,320.89-235.46,359.1-17.85,4.26-35.88,7.16-54.22,8.07-1.98.1-4.02.02-5.86,1h-27ZM885.56,658.49c169.81.31,308.78-138.01,309.27-307.8.49-170.62-137.85-309.59-308.58-309.98-169.84-.38-309,138.28-309.4,308.29-.39,170.07,138.36,309.18,308.71,309.49Z"/>
  <path class="cls-1" d="M1186.3,349.46c.03,165.47-134.59,300.07-300.13,300.1-166.12.03-300.52-134.2-300.47-300.07.05-165.84,134.61-300.03,300.69-299.86,165.35.17,299.88,134.66,299.91,299.83ZM885.71,647.62c164.08.02,298-133.48,298.16-297.2.16-164.92-133.32-298.77-298.02-298.84-163.94-.07-298.12,134.01-298.17,297.95-.05,163.92,134.08,298.08,298.03,298.09Z"/>
  <path class="cls-1" d="M1065.89,523.71c.94,2.51,3.39,2.98,5.43,4.01,6.34,3.21,12.65,6.5,19.04,9.62,1.4.68,2.85,1.85,5.02.94-2.52-2.78-6.59-3.15-9.14-6.62,5.38.76,8.5,4.71,12.95,5.97q-3.68,6.19-9.61,2.76c-10.49-6.05-21.11-11.9-31.46-18.19-10.17-6.18-19.44-13.66-28.87-20.9-16.46-12.63-31.11-27.26-45.96-41.67-4.79-4.65-9.3-9.57-12.79-15.3-1.85-3.04-5.25-3.98-7.67-6.22-.7-.65-1.98-.89-2.77-.18-1,.9-.71,2.28-.06,3.23.92,1.34,2.1,2.52,3.27,3.66,6.03,5.85,4.43,13.84,6,20.96,2.62,11.88.92,23.45-2.02,34.98-1.42,5.57-7.33,8.3-12.46,5.87-1.58-.75-2.22-1.92-2.02-3.59.51-4.27-1.75-6.98-5.2-8.85-8.06-4.37-15.85-9.01-21.38-16.69-2.26-3.14-5.88-1.84-8.8-1.52-4.68.51-9.31.84-13.9-.13-15.09-3.2-30.12-6.64-45.23-9.73-7.56-1.54-14.84-2.25-21.39,4.07-5.33,5.15-13.46,4.3-20.02,7-7.69,3.16-15.07,6.04-20.06,14.16-4.93,8.03-13.21,13.74-21.5,20.59,16.35.32,31.84-.9,47.73.7-1.89,2.52-3.87,1.75-5.59,1.76-13.49.07-27,.31-40.48-.02-5.56-.14-8.28,1.93-9.09,7.24-.55,3.61-1.23,7.22-2.1,10.77-.88,3.65.46,4.55,4.01,4.48,25.29-.44,50.58-.83,75.87-.99,21.48-.14,42.96.05,64.44.12,1.54,0,3.34-.58,4.35,1.38-1.29,1.7-3.09,1-4.65,1.05-15.65.55-31.33.73-46.96.57-29.58-.3-59.14,1.31-88.72.56-1.99-.05-3.98.29-5.98.32-2.65.04-3.39,1.59-3.35,3.91.04,2.67,2.05,2.1,3.59,2.19,4.85.3,9.88-1.09,15.83,1.87-6.19,1.41-11.25,1.35-16.28,1.01-2.73-.18-3.86.79-3.43,3.32,2.05,11.97-.77,23.92-.09,35.89.21,3.66,1.2,4.85,4.92,4.82,21.16-.17,42.33-.02,63.5-.16,4.96-.03,9.9-1.32,14.87-.07,1.21.31,3.32-.28,3.27,1.41-.06,2.15-2.28,1.37-3.61,1.37-19.32.05-38.64.04-57.96.05-6.33,0-12.68.34-18.99-.06-4.7-.29-5.89,1.45-5.1,5.74.35,1.9.06,3.91-.91,6.31-1.51-3.15-3.83-6.2-4.26-9.49-.36-2.68-1.59-2.5-2.65-1.78-2.87,1.94-4.48-.36-6.84-1.41,1.88-2.9,6.09-.75,7.59-4.04,1.21-2.66,3.3-4.99,1.54-8.26-2.38.63-1.54,3.75-3.97,4.29.39-5.58,5.55-9.86,4.38-16.04-3.04,1.3-2.44,5-5.3,6.28-.1-7.39,10.13-11.45,5.81-20.39-4.55,4.71-5.82,11.7-11.89,14.95,3.7-6.36,7.41-12.7,11.08-19.08.58-1.01,2.4-2.13.79-3.28-1.14-.82-2.43.04-3.82.97-6.78,4.54-10.24,11.88-15.47,17.7-3.76,4.19-3.36,4.54,1.47,9.53-8.06-3.77-10.01,1.58-12.74,5.72-2.22-3.06.84-4.62,2.08-6.52,1.19-1.82,1.68-2.94-.45-4.39-2.18-1.47-3.25-.56-4.26,1.3-.63,1.16-1.49,2.2-2.01,3.4-.67,1.53-2.68,3.07-1.01,4.82,1.47,1.54,3.44,2.67,5.75,1.27.24,1.04.97,2.76.64,3-1.06.75-2.71.89-3.79.14-5.44-3.81-11.35-7.21-15.93-11.89-2.97-3.03-1-8.49.41-11.86,1.93-4.62,2.4-9.28,3-13.94,1.05-8.23,4.88-15.09,9.74-21.42,2-2.61,3.23-5.7,5.76-8.03,1.67-1.53.83-3.52-1.83-3.52-7.55,0-15.1.07-22.64.17-2.32.03-2.21,1.25-1.46,3,1.16,2.71,2.1,5.51,2.68,8.49-2.54-3.68-3.27-8.27-5.88-11.91-.56-.78.09-1.88.86-2.01,6.75-1.14,2.46-4.66,1.66-7.42l-.11.11c.17,0,.45-.06.48,0,6.22,11.97,17.21,5.4,26.11,6.31,2.74.28,4.31-4.13,5.55-7.01.77-1.78.79-3.91,3.21-5.66-.49,3.44-.87,6.32-1.31,9.19-.19,1.26-2.26,2.83,0,3.65,1.75.63,4.06.85,5.36-1.34,1.64-2.74,2.6-5.72,3.21-8.86.37-1.89.68-3.96,3.14-5.51,1.07,3.71-.9,6.51-1.63,9.51-.49,2.03-3.02,4.81-.09,6.04,3.06,1.29,3.99-2.32,4.97-4.4,1.7-3.62,2.1-8,6.54-9.8.23.26.5.46.6.72.74,1.89-2.78,4.43.37,5.68,3.21,1.27,3.37-2.38,4.6-4.04,2.69-3.62,3.71-8.02,4.97-13.02,2.6,3.37.93,5.83.07,8.32-.45,1.29-2.05,2.81.05,3.84,2.13,1.05,2.89-.95,3.7-2.34,1.8-3.05,2.16-6.96,5.31-9.43,2.12,2.3-.68,4.6.49,6.86,3.28-.44,3.24-3.42,4.44-5.39,1.25-2.04,1.01-5.07,4.97-5.13,2.56-.04,1.23-2.4-.07-2.93-3.69-1.51-2.29-3.39-.76-5.45.1-.13.16-.3.28-.41,2.41-2.38,1.59-5.36.1-7.26-1.51-1.92-2.58,2.09-5.27,1.31,2.11-4.69,8.12-7.89,5.76-14.29-3.76,4.8-9.43,7.79-12.74,13.34-.8-3.85,1.64-5.84,3.76-7.94,2.4-2.37,4.74-4.74,5.15-8.3.11-.95.31-2.14-.72-2.7-1.09-.6-1.85.36-2.56,1.02-3,2.76-5.19,6.37-9.25,9.05.47-3.72,2.51-5.66,4.37-7.7,1.01-1.11,2.09-2.15,3.09-3.27,1.07-1.21.86-2.77-.02-3.67-1.44-1.47-2.22.43-3.04,1.19-3.15,2.92-5.38,6.82-10,8.36,2.02-2.25,3.97-4.57,6.08-6.74,1.54-1.58,2.65-3.31.99-5.19-2.07-2.33-3.04.53-4.26,1.39-2.23,1.58-4.02,3.81-5.6,4.27,1.37-1.73,3.2-4.32,5.34-6.6,1.47-1.56.71-2.64-.14-3.9-1.35-1.99-2.31-.17-3.17.46-2.66,1.95-4.81,4.59-8.4,6.39,1.74-6.69,11.67-7.85,10.25-16.87-3.91,3.19-5.61,7.69-10.52,8.7-.17-2.95,6.11-4.19.74-8.11,2.46.37,3.31,2.53,5.25.62,3.67-3.64,4.97-6,3.85-10.57-2.46,6.09-9.04,6.58-12.98,12.34-.26-4.33,2.2-5.01,3.6-6.37,1.44-1.41,1.8-3.14.52-4.42-1.97-1.99-2.26.56-2.96,1.58-.66.95-1.49,1.57-2.47.95-1.27-.79,0-1.7.2-2.56.66-2.93,5.65-3.58,4.05-7.74-.39-1.02.3-2.59-1-3.09-1.38-.53-1.99.9-2.68,1.76-2.35,2.95-4.36,4.6-5.74-.73-.54-2.09-2.07-1.83-3.47-.69-1.92,1.57-3.79,3.18-5.92,4.98-1.03-2.64.69-3.6,2.03-4.69,1.55-1.25,3.23-2.36,4.72-3.67,1.14-1,1.33-2.54.45-3.62-1.1-1.36-2.08.12-2.86.76-2.85,2.34-6.58,3.43-8.85,6.68-.34-2.59,1.12-3.82,2.72-4.95,1.36-.96,2.77-1.85,4.1-2.85,1.42-1.06,1.74-2.41.71-3.91-1.42-2.08-2.59-.39-3.68.38-2.52,1.78-4.19,4.83-8.53,5.28,2.28-5.13,8.16-6.44,10.35-11.07-2.17-.83-3,2.04-5.09.87-.5-2.11,3.67-6.14-2.13-6.66-.08,0-.22-.94-.1-1.38.35-1.36,2.67-2.33,1.45-3.86-1.68-2.11-2.11,1.22-3.48,1.2-1.07-.02-4.07-4.35-3.63-5.44.47-1.17,1.68-2.08,1.3-3.85-1.82.79-2.99,3.52-4.75,2.6-1.14-.59-1.47-2.99-1.88-4.65-.36-1.43-.53-2.98-.42-4.44.28-3.51-.81-5.95-4.06-7.78-4.52-2.55-4.86-6.09-1.25-10.23,3.06-3.51,6.37-6.8,9.47-10.29,1.89-2.13,2.47-4.21-.54-6.14-2.62-1.69-2.19-3.99-.24-5.87,10.71-10.29,17.4-23.52,25.99-35.36,2.54-3.49,4.07-7.49,4.47-11.86-2.05-.39-2.26,2.13-4.01,2.04-1.13-1.83.65-2.64,1.4-3.69,1.26-1.76,1.6-3.33-.35-4.72-1.8-1.29-3.44-.85-4.85.74-1.64,1.86-3.36,3.67-4.9,5.62-2.61,3.28,2.28,3.26,2.45,5.47-2.49.73-4.05-2.81-6.26-1.71-1.8.89-3.14,2.7-5.19,4.56q2.75-6.45-.03-8.59c.78-1.13,1.87-.52,2.56-.17,3.03,1.55,5.17.8,6.4-2.3.87-2.2,5.44-3.53,3.55-5.46-2.1-2.15-3.06,3.12-5.93,3.25-1.11-2.49,2.33-3.38,1.93-6.42-8.17,2.59-12.16,10.29-18.77,14.46,1.67-3.84,5.22-5.97,7.87-8.88,1.56-1.72,3.47-3.12,5.12-4.76.81-.8,2.87-1.4,1.31-3.01-1.24-1.28-2.36,0-3.43.8-1.23.91-1.92,2.77-4.97,2.29,4.18-4.26,7.87-8.02,12.48-11.5.44,2.26-1.02,2.78-1.81,3.66-1,1.1-2.56,2.2-.62,3.61,1.74,1.27,3.03-.34,3.56-1.52.96-2.14,2.29-3.77,5.68-5.33-5-1.08-7.55-5.17-12.42-.34-4.31,4.27-9.81,7.62-14.38,12.12-1.45-2.34.37-3.01,1.12-4.11,2.43-3.54,8.86-3.72,8.24-9.81.46-.04.92-.15,1.36-.1,1.69.21,3.61-.49,3.04-2.05-.66-1.81-2.57-3.7-5.08-2.44-1.56.78-2.62,1.93-2.51-1.06.07-2.01-1.5-1.17-2.55-1.1-3.35.24-5.82,2.12-8.33,4.14-2.28,1.83-4.13,4.34-7.92,5.34,2.07-3.85,6.71-4.41,8.29-8.75-4.06.48-7.79-.32-10.94,2.46-.9.79-2.24,2.26-2.41-.61-.11-1.82-1.58-1.2-2.65-1.35-8.9-1.2-17.83-1.89-26.8-1.64-2.95.08-5.42-1.42-8.13-1.94-9.92-1.91-19.49-5.11-29.24-7.6-3.75-.96-7.5-2.17-10.35-5.5,7.75,2.16,15.46,4.49,23.26,6.45,24.61,6.18,49.35,10.89,74.83,5.64,7.87-1.62,14.83-5.92,22.61-7.78,1.79-.43,1.97-1.66,1.79-3.01-.96-7.23,3.5-12.63,7.3-17.47,7.23-9.19,14.5-19.05,26.23-23,8.14-2.74,13.93-7.98,19.23-14.23.74-.88,1.67-1.7,2.69-2.22,7.28-3.7,13.74-8.19,18.56-15.09,2.37-3.39,2.93-5.55-1.03-6.97-4.73-1.7-3.95-3.6-.93-6.04,5.35-4.32,7.56-9.84,8.65-16.7,2.05-12.85,10.82-20.94,22.3-25.98,3.9-1.71,8.8-.99,12.06,1.33,5.86,4.17,12.38,6.22,18.96,8.53,9.5,3.34,13.78,11.54,11.06,21.04-.79,2.75-.79,6.6-6.05,5.87-3.01-.42-4.62,6.4-1.98,8.98,3.43,3.34,3.47,5.38-1.43,6.89-2.02.62-2.72,2.83-3.86,4.43-2.72,3.83-5.34,7.72-10.55,8.48-1.7.25-2.06,1.31-1.55,2.93,1.14,3.6,2.69,7.11,6.28,8.62,5,2.11,8.51,5.78,11.68,9.87,1.59,2.06,3.3,2.9,5.92,2.78,13.18-.61,26.38-1.22,39.57-.23,1.33.1,3.68-.85,3.74,1.09.07,2.45-2.49,1.52-3.94,1.61-9.42.53-18.9-.47-28.3,1.1-2.36.39-4.65-2-6.66-.98,11.25,9.8,22.71,19.73,34.12,29.72,7.52,6.58,14.91,13.08,25.72,13.86,4.18.3,7.95,3.02,9.3,7.33,1.39,4.42,4.71,7.6,6.54,11.69,1.16,2.6,2.75,1.04,3.94,0,2.37-2.07,4.22-4.74,7.08-6.27,1.67-.89,3.36-1.47,5.19-.33,1.88,1.17,1.96,2.93,1.71,4.83-.23,1.82-.32,3.67-.74,5.44-2.42,10.04.27,15.72,9.37,19.56,11.72,4.94,23.72,5.1,35.87,1.94,2.77-.72,5.52-1.09,8.39-.89,6.12.43,12.2,1.39,18.41.31,5.03-.88,9.85,1.46,14.65,2.45,7.83,1.61,16.16,2.08,23.17,6.71.69.45,1.61.61,2.2,1.14,7.87,7.09,17.35,12.71,22.84,22.03,4.19,7.11,7.9,14.75,7.4,23.49-.14,2.39.37,4.66,1.26,6.82,1.56,3.82,2.32,7.6.46,11.57-.4.86-.55,2-.39,2.93,2.11,11.96-3.16,22.61-8.43,32.04-7.03,12.59-15.37,25.17-28.57,32.67-8.76,4.98-17.97,9.14-28.1,10.85-4.08.69-8.11,1.83-12.05,3.12-11.45,3.76-22.99,3.97-34.67,1.41-1.95-.43-3.91-.81-6.28-.21,29.75,30.32,63.18,55.13,102.55,72.68-2.68,1.67-3.78.52-4.86-.06-19.27-10.46-39.04-20.03-56.62-33.37-12.05-9.15-23.99-18.4-34.6-29.25-2.09-2.13-4.5-3.95-6.77-5.9-1.93-1.65-3.98-.95-5.3.51-1.34,1.48.44,2.74,1.43,3.7,17.2,16.8,33.85,34.14,53.82,47.94,8.93,6.17,18.47,11.18,27.79,16.52,5.51,3.15,11.45,6.7,18.46,6.27q-1.08,5.06-9.03,4.09c.24,2.3,3.36,1.83,4,4.71-9.6-5.8-19.22-10.36-27.77-16.71-3.58-2.66-7.64-4.62-10.83-7.92-2.48-2.57-3.08-6.5-6.66-8.25-1.99-.98-3.55-2.81-6.46-3.51,1.4,4.4,5.82,4.8,7.45,8.01-5.81-2.39-10.94-6.03-15.31-10.21-5.52-5.29-11.53-10-17.03-15.3-5.29-5.1-10.76-9.94-14.7-16.23-3.42-5.45-8.92-8.95-13.61-13.01-2.99-2.58-8.45-1.28-12.63-.36-2.55.56-.26,2.42.4,3.4,3.17,4.72,8.63,7.3,11.61,12.26.67,1.12,1.81,1.95,1.95,4.88-8.4-5.71-14.51-12.69-21.39-18.69.73,2.95,3.32,6.15,8.13,11,19.11,19.27,39.3,37.26,61.48,52.98,5.13,3.64,10.06,7.51,15.9,10l-.15-.11ZM862.62,136.65l-.14-.14c-.58,2.97-6.46,2.92-3.99,8.57,2.44-5.01,8.68-3.35,10.83-9.11.75,3.01-3.47,6.19,1.62,7.34.74.17-.8,1.49-1.41,2.1-1.78,1.78-2.69,3.6-.99,6.39,3.97-3.84,4.24-9.55,8.23-13.47.12,3.15-2.16,5.28-1.74,8.26,5.78-3.03,4.25-9.78,7.72-14.57,1.1,2.93-1.29,5.7,1.2,7.61,3.3-2.24,1.51-6.04,2.39-9.28,2.06,2.24.36,5.46,2.96,7.47,1.4-2.75.76-5.2.53-7.63-.27-2.96-.85-5.35-4.8-3.91-1.04.38-2.24.17-3.07-1.02-.74-1.06,2.22-1.88.12-2.72-1.35-.54-1.94,1.01-2.94,1.5-1.04.51-2.13.86-3.04-.25.23-1.94,3.08-1.16,3.25-3.26-2.12-.76-3.86-.2-5.63.92-3.76,2.4-9.44,1.23-11.6-2.31-.7-1.14,0-1.76.84-2.43.73-.58,2.31-.57,1.81-2.55-2.86.78-5.37,1.86-7.23,4.03-.74.87-1.38,1.64-2.33.7-.98-.97-.68-2.14.33-3.04,1.42-1.28,3.73-1.21,5.18-3.31-3.51-.89-5.44,2.64-8.37,2.14.11,7.04-11.33,9.93-6.06,18.67,4.6-1.84,3.23-9.54,9.05-10.81-5.09,6.04-6.53,10.46-5,15.79,1.82-4.11,3.51-8.11,6.88-11.01,1.11-.96,2.49-2.52,3.88-1.33,2.1,1.8-.77,2.39-1.45,3.2-1.9,2.26-.35,4.71-.66,7.01-.12.87,2.34.22,3.6.43ZM800.26,205.27l-.1-.07c-3.61,2.23-2.78,3.6.81,4.65,1.22.35,2.6.76,3.39,3.32-4.54-2.25-8.52-4.01-12.3-6.14-8.54-4.82-20.09-3.09-25.76,3.84-2.05,2.5-2.56,4.14.53,6.39,3.2,2.34,5.99,5.34,7.56,9.61-4.87-.62-6.43-4.71-9.45-6.87-1.58-1.13-2.99-3.41-5.53-1.18-5.69,5-10.11,19.89-7.23,26.9,2.81,6.87,4.08,14.2,7.19,20.99,2.45,5.35,3.51,6.16,8.68,3.2.71-.41,1.25-1.1,1.94-1.56,1.22-.81,2.86-2.18,3.87-.49,1.02,1.71-1.07,2.76-2.3,3.07-6.38,1.62-9.9,6.6-13.38,11.41-2.62,3.61-4.35,7.85-6.72,11.66-6.94,11.15-14.33,22.01-22.69,32.16-2.35,2.86-2.13,5.01,1.43,6.58,1.97.87,4.21,1.48,5.54,3.26,3.11,4.16,5.27,1.89,7.21-1,2.31-3.45,4.04-7.25,6.09-10.85,4.97-8.76,9.89-17.53,13.33-27.16,3.21-8.97,7.05-18.02,17.48-21.7,5.46-1.93,10.58-4.82,15.86-7.28,1.3-.6,3.05-.77,2.58-2.96-1.3-6.07-3.61-11.7-7.14-16.82-1.26-1.83-3.18-1.38-4.98-1.55-3.35-.32-6.92.66-10.25-1.47,3.25-3.01,7.29-.36,10.5-1.88-.73-5.94-7.95-6.91-9.29-13.03,3.28,1.84,5.52,4.38,8.66,5.28,3.31.96,6.06,2.74,8.06,5.55,2.97,4.17,6.04,3.97,10.16,1.25,7.84-5.17,16.73-8.48,24.73-13.5,4.83-3.03,11.87-12.9,12.05-18.69.12-3.86-1.16-7.82.3-11.74,4.63,2.15,5.18,8.83,11.71,9.3-1.36-3.88-4.99-6.16-4.52-11.31,3.02,4.99,5.19,9.36,9.71,12.02.52-2.95-2.89-4.48-1.7-7.33,2.32,1.67,3.2,4.32,4.94,6.28,1.64,1.84,2.75,4.39,5.97,4.9-.27-3.36-3.49-5.13-2.93-9.04,2.6,4.96,5.62,8.47,10.11,11.84-.43-4.02-3.75-5.59-3.35-8.91,2.86,1.38,3.35,4.97,6.13,6.11,1.24-.6-.21-2.29,1.15-2.84,4.28,3.9,5.05,11.7,13.09,10.9-.36-1.21-.72-2.4-1.07-3.58.22-.08.45-.15.67-.23,1.64,2.27,3.28,4.54,4.68,6.47,1.78-.79-.34-2.05,1.45-2.73,1.05,2.03,2.06,4.09,3.17,6.09.56,1,1.98,2.57,2.5,1.88,2.95-3.95,2.83.57,3.76,1.35,1.33,1.12,1.8,3.14,3.66,3.86,1.33-1.47-1.23-2.75.16-4.53,2.5,3.94,4.94,7.78,7.78,12.26.5-2.92-1.66-4.53-.35-7.07,1.45,2.31,2.88,4.26,3.97,6.39,2.62,5.13,5.67,9.29,12.33,9.27,3.72-.01,5.15-2.51,6.98-4.76,1.36-1.67.7-3.34-.85-4.29-5.31-3.24-9.51-7.73-14.1-11.81-8.29-7.38-16.89-14.42-25.21-21.77-1.8-1.59-3.37-2.74-5.92-3.06-4.3-.54-8.66-1.39-12.77-3.79,2.52-1.44,4.33,1.39,6.86.13-5.12-4.02-8.21-10.31-13.97-12.76-6.45-2.74-9.35-7.74-12.84-13.07-3.1-4.72-6.6-10.75-14.37-7.25-.5.23-1.28-.18-1.93-.25-10.45-1.08-21.03-2.64-28.44,7.65-.45.62-1.35,1.17-2.1,1.27-9.99,1.29-14.11,9.48-20.01,16.19,3.41,2.11,7.33-1.44,10.07,1.99-8.55,3.52-19.11-3.33-26.69,6.33,7.74.75,14.37,3.55,21.42,4.66ZM1042.47,430.47c3.05,1.69,5.72,2.65,5.33-2.65-.06-.82.02-1.82,1.01-2.05,1.53-.35,1.3.92,1.58,1.84.85,2.73,3.34,4.13,5.63,4.11,2.45-.02,1.27-2.91,1.69-4.52.31-1.21.63-2.52,2-2.43,1.46.09.59,1.58.88,2.4.78,2.15,2.75,3.24,4.6,3.2,1.8-.04,1.43-2.27,1.66-3.7.2-1.29.28-2.7,2.09-2.94,1.03,2.05-.19,3.91-.43,5.82-.23,1.83.79,2.32,2.23,2.61,1.13.22,2.42.78,3.19-.47,1.16-1.88-.86-2.08-1.74-2.86-.46-.41-1.21-.58-1.05-2,5.43,4.06,4.36-2.39,6.49-4.15,1.64,1.85.69,3.71.74,5.42.07,2.17,1.69,2.17,3.17,2.28,1.05.08,2.59-.49,2.15-1.4-2.12-4.39,4.58-5.44,2.95-10.06,1.49,5.98,5.7,3.02,8.24,3.13,1.96.08.8-3.04.94-4.73.18-2.14-.24-4.42,3.15-2.02,2.48,1.75,4.99.02,4.69-3.05-.22-2.22-.97-4.38-1.52-6.73,2.69.14,2.39,2.92,4.36,3.73,1.24-3.37,9.58-4.06,2.66-10.31,2.12.26,2.82,1.1,3.47,2.11,1.79,2.8,3.2.61,3.12-.77-.18-3.07,1.42-3.63,3.79-4.44,2.37-.81,3.25-3.35,3.45-5.67.22-2.55-2.49-2.06-3.86-2.98-.7-.47-2,0-2.24-1.35,1.55-1.09,3.21-1.59,4.65-.34,2.25,1.96,3.62.57,4.03-1.29,1.09-4.94,3.47-9.35,5.07-14.07.05-.15-.34-.45-.51-.66-5.79,3.7-6.71,3.85-10.55,1.84,8.9-1.7,10.35-3.25,10.45-11.21-3.67-.08-6.93,4.26-11.92.61,4.84-.81,7.98-2.97,10.53-6.08.88-1.07,3.09-1.6,1.92-3.41-1.07-1.66-2.29.23-3.42.55-1.43.4-2.79,1.07-4.21,1.51-2.54.78-5.68-.8-7.72,1.01-2.3,2.04,1.44,4.93-.59,8.16-2.3-5.57-3.01-10.67-1.8-16.2.58,4.96,3.33,6.25,7.74,5.48,5.28-.93,8.44-4.54,8.23-9.78-2.5.16-3.73,3.34-7.54,2.68,3.2-1.4,5.13-3.13,6.97-4.97,1.3-1.3,2.05-2.68,1.05-4.42-.88-1.53-2.3-1.68-3.92-1.34-1.71.36-3.52,1.26-5.21-.62,2.79-1.96,6.27-3.41,4.98-7.88-1.49-5.14-4.42-2.09-6.99-1.35-.73.21-1.35-.1-1.6-.81-.28-.79.34-1.15.93-1.48,1.25-.7,3.14-.78,3.34-2.61.36-3.35-6.34-8.59-9.73-7.79-1.22.29-2.34,1.5-3.73.56-.77-2.14,3.55-1.83,2.02-4.27-1.52-2.42-4.04-.51-6.12-1.3-.15-1.34,2.59-2.04.27-4.16-5.3-4.83-12.07-6.24-18.37-8.34-1.88-.63-4.61-.94-6.99-1.36-6.61-1.19-12.81-2.65-20.09-.49-6.29,1.86-13.96,2.82-22.12-.18,6.07-.33,11.14.8,16.93-1.32-6.74-1.49-12.38-2.44-18.44-.88-12.71,3.29-25.35,3-37.6-2.25-10.11-4.33-13.91-11.81-11.49-22.51.37-1.65,1.16-3.86-.18-4.67-1.77-1.07-3.24,1.01-4.58,2.17-.74.64-1.27,1.53-1.9,2.3-3.39,4.14-6.74,3.99-9.92-.37-1.02-1.4-2.11-3.98-4.03-2.59-2.08,1.5-1.55,4.11-.03,6.26.82,1.16,2.81,1.3,2.81,3.27-1.16.46-3.24-.66-3.13,1.99.18,4.36,4.81-.07,5.54,2.98-2.66,1.78-3.94,3.89-.16,5.62,1.93.88,1.62,2.1,1.77,3.54.85,8.36,1.35,8.76,9.74,7.88-.53,1.29-2.03.92-2.84,1.65-1.52,1.36-.68,3.74.43,3.36,4.35-1.51,3.19,2.4,4.34,3.9.34.45.29,1.4,1.02,1.44.92.06,1.42-.61,1.68-1.51.29-1-.65-2.22.48-3.15.29.39.57.62.68.92.59,1.55,5.15,1.29,2.06,4.75-.41.47,1.08,4.03,3.09,3.71,2.23-.34,1.37-2.5.84-4.12-.25-.75-.19-1.6-.28-2.48,2.31.43.95,4.49,3.98,3.64,2.6-.73-.16-3.41,1.42-4.66,2.5,1.93,1.42,3.87-.08,5.58-1.34,1.53-1.04,2.77.34,3.8,1.74,1.3,1.74-.79,2.55-1.26,2.21-1.28,3.68-3.22,6.05-5.64-.06,4-.41,7.84,3.6,8.73,4.11.92,2.4-4,4.5-5.25,4.53,5.31,5.48-1.31,7.98-2.7,1.63,3.38,3.71,7.11,6.91,7.21,2.88.09,1.15-4.16,2.03-6.31.37-.9-.08-2.66,1.67-2.38,1.29.21,1.73,1.4,1.65,2.71-.04.66.02,1.33.01,2,0,1.29.38,2.21,1.83,2.54,1.74.39,2.27-.55,2.87-1.93.84-1.9.86-4.25,3.14-5.9,0,1.75,0,3.17,0,4.59,0,1.25-.69,2.82,1.22,3.3,1.76.44,2.38-.92,2.8-2.19.81-2.44,2.46-3.26,4.78-2.98.58,2.02-2.59,4.35-.47,5.37,2.44,1.18,2.24-3.19,4.39-3.75,1.59,1.26-2.01,3.73.98,4.46,3.06.75,5.51-.37,6.83-3.55,1.33,1.63-1.88,3.43.93,4.88,4.71,2.43,4.63-3.22,7.19-4.48.56,2.54-3.21,4.23-.55,6.23,2.7,2.04,3.01-2.23,5.31-2.41.54,4.72,2.8,4.58,5.84,1.22.11,2.73-1.79,3.74-2.48,5.38-.4.96-.91,2-.12,2.78.86.84,1.89.09,2.64-.47,1.92-1.44,3.75-2.98,5.61-4.49-.85,3.72-3.57,5.44-6.49,6.96-1.23.64-1.71,1.71-1.04,2.9.75,1.32,1.8.23,2.53-.12,2.8-1.35,5.52-2.86,8.27-4.31.12,1.26-.22,1.79-.6,2.29-.83,1.06-3.17,1.43-2.01,3.38.98,1.64,2.77,1.35,4.51,1.04,1.32-.24,2.37-2.01,3.88-.92.57,2.68-5.63,2.44-2.44,5.71,1.42,1.45,1.51,2.71,1.97,4.4.69,2.53,1.82,5.37,4.65,6.61.92.4,1.45,2.03,2.91.96,1.23-.9.85-2.13.6-3.19-.55-2.36-1.3-4.68-2.1-7.47,9.68,9.16,3.13,50.53-8.65,55.61,3.3-4.6,5.07-9.65,7.37-14.43.82-1.7.7-2.76-1.31-3.24-1.63-.4-3.38-2.19-4.76.26-.99,1.74-2.03,3.61.37,5.22.82.55,1.74,1.23.94,2.39-.22.32-1.1.63-1.21.52-3.13-3.4-5.49.69-8.15,1.09-.64-2,2.57-2.18,1.66-4.1-2.03-.5-3.45,1.46-5.43.86-1.77-.53-4.52-.72-4.91,1-.65,2.85,2.82,1.91,4.22,3.05.23.19.38.48.95,1.21-5.39-1.24-4.64,1.28-3.16,4.3.64,1.32,1.35,2.69.05,5.02-3.22-5.46-3.37-13.63-12.47-13.42,5.88,12.53,3.32,24.66-.43,36.12-.11-1.76-1.14-4.57-.27-6.53,3.07-6.84.55-13.6.59-20.38.02-4.69-3.23-6.2-7.39-8.63,1.8,8.71.28,16.29-1.26,23.87-.2.97.44,2.82-1.42,2.52-2.16-.35-.6-1.68-.3-2.6,2.39-7.4,1.33-14.62-1.04-21.79-.44-1.32-1.03-2.63-2.68-2.46-1.99.2-1.32,1.92-1.53,3.13-.21,1.19.45,2.8-1.7,3.32-.26-3.72-.57-7.4-2.14-10.82,1.84-.79,3.18.09,4.69.91,3.45,1.85,6.76,2.1,10.81.69,3.91-1.36,5.54-5.89,10.01-5.98,5.7-.11,8.12-4.04,10.08-8.71,1.84-4.38,1.02-9.11,1.96-13.29.96-4.28.84-6.88-.94-10.96-3.87-8.85-11.71-12.34-19.12-16.14-8.55-4.39-18.47-3.01-27.74-3.82-14.56-1.27-29.35,2.07-43.79-2.34-.3,1.94.78,2.63,1.55,3.42,6.64,6.78,11.58,14.54,14.14,23.76,2.42,8.71,7.49,16.01,13.49,22.45,3.19,3.43,6.72,8.18,12.22,7.37,4.14-.6,7.23.22,8.84,3.6,1.73,3.64.71,7.32-2.63,10.22-1.28-2.54.75-4.45.51-6.56-.32-2.83-1.64-5.51-4.54-5.6-3.2-.11-1.66,2.86-1.86,4.63-.34,3.02-.48,6.17-4.45,7.76.08-1.11.02-1.76.19-2.35,2.1-7.7,1.29-9.97-5.45-13.99-3.49-2.09-6.15-4.96-8.92-7.88-4.68-4.94-6.48-11.45-9.8-17.09-2.55-4.32-7.5-7.09-8.13-12.58,0-.08-.56-.1-.84-.14-1.36.88.47,3-.53,3.41-4.83-1.06-4.75-7.61-10.22-6.84-.53-3.79-4.65-5.45-5.44-9.01-1-4.53-5.59-6.85-6.7-11.28-.07-.3-.71-.45-1.09-.67-2.09,3.96-2.16-.36-3.17-.79-3.93-1.67-3.14-6.93-6.69-8.89-4.78-2.64-8.89-6.73-14.3-7.92-9.15-2.01-15.23-7.4-21.08-14.56-6.79-8.32-16.95-13.18-25.53-19.65-4.81-3.63-9.96-8.08-16.55-8.62-8.8-.72-15.47-5.96-22.43-10.33-10.91-6.87-21.73-11.77-34.91-6.17-3,1.28-3.12,1.85-1.08,3.89-.72.22-1.05.43-1.33.39-1.43-.24-2.71-2.36-4.33-.24-1.31,1.71-.19,2.33.69,3.86,1.14,1.99,2.34,5.36-.92,7.68-.92.65-2.41,1.95-1.24,3.75,3.21-.97,4.87-5.1,9.08-4.48-1.18,2.61-4,2.96-5.25,4.92-.85,1.33-1.01,2.89.41,4.02.73.58,1.46,1.01,2.3-.38,3.74-6.19,10.72-8.31,16.11-12.44.47-.36,1.29-.36,1.66,1-3.01,2.26-6.21,4.56-9.28,7.03-.84.68-3.11,1.31-1.56,2.83.91.89,1.49,3.37,3.81,2.16.89-.47,1.84-.84,2.95.19-1.18,2.26-2.85,4.47-4.31,6.42-1.42,1.91-4.74,2.67-6.74,4.65-.85.84-2.61,1.74-1.36,3.19,1.16,1.34,2.57.74,3.92-.37,3.32-2.74,6.65-5.53,10.25-7.86,2.63-1.7,5.17-3.86,9.73-4.68-5,4.97-10.97,6.79-14.37,11.67-.83,1.2-2.77,2.25-2.15,3.7,2.03,4.74-1.89,3.23-3.48,3.18-3.24-.09-5.73-2.5-8.63-3.64-6.77-2.66-13.37-7.5-21.16-3.99-6.24,2.81-13,4.29-19.05,7.29-4.42,2.19-9.4,4.46-12.03,9.16-7.54,13.5-13.64,27.68-19.51,41.97-.93,2.26-1.76,4.55-2.79,7.23,3.93-1.38,5.66-4.66,8.68-7.14-.16,3.52-2.36,4.9-4.04,6.66-5.51,5.77-13.19,9.01-18.02,15.61-1.83,2.51-5.08,3.99-5.77,7.33-.81,3.88,3.55,4.46,4.85,7.2,2.83-3.14,4.74-7.33,10.24-8.55-3.97,3.68-6.66,7.36-9.13,11.21-1.1,1.72-1.52,2.92.79,4.41,9.6,6.23,19.24,12.18,31.09,13.01,2.34.17,4.7.81,6.44,2.44,7.66,7.19,16.65,12.57,24.99,18.84,2.39,1.79,6.05,2.14,7.32,4.93,2.89,6.36,8.39,11,11.02,17.48,1.33,3.27,4.84,3.92,6.91,2.63,8.85-5.56,15.67-13.21,19.74-22.93,3.11-7.43.82-15.43.23-22.84-.46-5.81.81-11.06.96-16.57.23-8.54,3.79-15.73,9.1-22.15,1.95-2.36,4.44-4.15,7.85-4.94-.41,2.68-2.01,4.04-2.96,5.76-.67,1.22-2.2,2.35-.39,3.85,1.63,1.35,2.95,1.05,4.24-.54,1.09-1.35,2.14-2.9,4.81-2.85-2.47,4.57-4.41,8.92-8.23,11.98-.9.72-2.4.96-1.22,2.45.74.94,1.81,1.5,3.07.65.97-.67,1.96-1.31,2.94-1.97-4.79,6.91,3.09,6.43,5.11,9.12-5.95,2.85-8.31,8.64-4.01,13.42-.39-8,6.04-9.9,9.51-14.34-.84,2.09-2.1,3.84-3.22,5.68-.86,1.4-2.03,3.1.16,4.24,2.24,1.16,2.25-1.27,2.92-2.33,2.18-3.45,3.05-7.88,7.54-10.15-.05,2.7-1.63,4.09-2.7,5.67-1.66,2.44-1.31,3.87,1.36,5.4,3.15,1.81,3.26-.76,4.16-2.31,1.8-3.1,2.78-6.78,6.78-9.87-1.55,2.87-2.56,4.58-3.42,6.37-.69,1.43-1.94,3,.42,4.18,2.22,1.12,3.34-.12,4.41-1.84,1.22-1.97,1.57-4.54,4.73-6.82-3.28,7.05-6,12.91-8.79,18.9-1.7-1.11.2-4.01-2.68-3.76-1.1.09-1.89.39-2,1.69-.35,4.08-4.02,6.73-4.41,11.01-1.47-2.66-3.42-4-6.07-3.89-3.46.14-1.34,4.96-4.83,5.78.3-2.04.54-3.8.82-5.55.26-1.62-.61-2.66-1.94-3.08-1.7-.52-3.6,1.46-3.4,1.93,2,4.59-5.56,8.2-1.18,13.01.71.78-.68,3.23,1.5,3.58,2.88.47-.55-3.26,2.22-3.2,1.25,1.8,3.19,2.99,5.25,1.32,4.12-3.36,3,.75,4.02,2.17-2.16,1.22-5.51-2.4-5.95,1.41-.39,3.39,3.05,2,5.5,2.01-4.26,2.53-4.42,2.65-6.78-.32-2.41-3.04-5.64-1.18-8.43-1.62-.91-.14-2.44,2.15-1.85,3.6,1.06,2.61,3.55.09,5.55,1.1-1.56,2.29-3.37,4.29-.75,7.32,3.22,3.72,4.23-2.16,6.65-.96.6,1.44-1.96,1.78-1.01,3.74,10.49.36,18.78-5.16,27.06-11-1.24,3-3.67,4.58-5.97,6.33-7.62,5.79-17.47,4.52-25.78,8.19-1.71.75-3.3-1.28-4.88-2.11-1.69-.88-2.73-.65-3.68,1-1.26,2.19.51,2.57,1.81,3.14.89.39,1.95.83,2.83.67,1.45-.25,2.32.17,2.69,1.46.54,1.91-.94,1.71-2.07,1.8-1.1.09-1.89.47-1.99,1.75-.23,2.96-3.11,4.58-3.77,7.48-.32,1.4-3.43,2.97-1.07,4.06,1.64.75,4.69,3.78,6.86-.07.49-.86,1.19-1.6,1.79-2.4,2.68-3.58,5.26-7.15,6.27-11.7.28-1.28,2.31-4.7,3.52-2.42,1.26,2.39,1.97,1.46,3.12.99,7.85-3.23,15.73-6.42,21.24-13.41.86-1.09,1.86-2.53,4.04-1.34-6.68,8.55-15.44,13.54-25.6,16.45-1.66.48-4.1.06-4.78,2.12-2.3,6.88-7.95,11.58-11.22,17.8-.77,1.47-.16,2.74.95,3.49,1.39.95,2.71-.84,2.57-1.35-1.03-3.85,2.75-4.04,4.26-5.86,3.41-4.13,5.64-8.97,8.54-13.43-.29,4.87-2.77,8.76-5.36,12.61-1.21,1.79-2.49,3.55-3.55,5.43-1.04,1.85.42,3.17,1.42,4.4.88,1.07,2.43.1,2.4-.49-.17-3.11,2.93-2.94,4.17-4.56.67-.88,2.3-2.25,1.42-2.79-2.61-1.59-1.17-1.85.4-2.57,3.79-1.74,4.54-5.61,5.46-8.99.29-1.04-.21-2.1,1.21-2.6,6.18-2.16,10.96-6.15,14.98-11.22.97-1.22,2.06-2.59,4.71-2.39-3.64,5.77-7.92,10.31-13.93,12.52-4.11,1.51-5.37,4.24-6.16,8.73,5.84-2.24,10.81-4.89,14.87-8.71,3.79-3.57,6.17-8.52,10.59-11.55-5.06,8.92-11.61,16.41-21.47,20.03-5.75,2.11-8.18,7.01-11.11,11.51-1.08,1.67-1.76,4.86.14,5.83,1.95,1,2.94-1.8,4.01-3.46,2.72-4.2,6.18-9.64,10.25-10.26,5.64-.87,7.74-4.85,11.4-7.43,1.85-1.3,2.92-4.06,6.2-3.48-3.46,4.98-7.13,9.37-12.28,11.95-5.63,2.83-9.46,7.13-12.26,12.58-.74,1.43-2.31,2.68-.51,4.35,2.15,2,2.78-.56,3.9-1.4,5.08-3.84,9.3-8.58,13.95-14.78-.02,3.6-1.21,5.15-2.37,6.31-2.85,2.84-4.55,6.48-7.15,9.47-.87.99-1.99,2.05-.73,3.45,1.31,1.46,2.58.75,3.98-.1,3.33-2.03,8.54-3.15,3.37-9.08,1.75,2.47,4.88,2.95,5.3,5.94-3.77.14-2.44,6.52-7.06,5.74-1.03-.17-2.05.72-2.07,1.75-.02.82,1.01,1.22,1.87,1.36,1.31.2,2.77.61,3.89-.24,3.86-2.94,8.89-4.44,11.18-9.37.58-1.25,1.74-2.82,4.06-2.43-.58,3.07-2.49,5.19-3.91,7.54-.52.85-1.39,1.79-.51,2.65,1.18,1.16,2.1-.07,2.94-.78,2.54-2.15,4.06-5.46,7.32-7.07.84,1.98-.43,2.82-1.1,3.9-.58.91-2.1,1.76-1.09,2.94,1.03,1.21,2.53.4,3.68-.19,1.17-.6,2.18-1.52,3.31-2.22.35-.22.86-.16,1.24-.22.94,1.72-1.59,2.12-1.09,3.55,5.05,2.28,4.16-2.85,5.79-5.14,1.94,2.22-1.02,5.58,2.08,6.77,2.56.98,3.05-1.69,4.19-3.27,1.2,3.31-1.78,7.34,2.53,9.57.81.42.18,1.26-.29,1.65-.83.69-1.62,1.32-.55,2.33.29.28.93.32,1.39.27,1.29-.12,1.51-1.1,1.52-2.16.01-2.21,0-4.43,0-6.64,1.79,5.1.93,10.53,3.43,16.65,1.29-5.09-.3-8.96,1.22-13.65.61,4.09-.22,7.56,1.74,10.68,1.43-1.86-.18-4.47,2.03-6.24.9,5.14-.67,10.47,3.1,14.57l-.05-.12c.32,1.62.55,3.26,1,4.84.36,1.28-1.38,3.49.95,3.72,2.11.21,4.87-.83,5.26-2.98,1.76-9.67,7.62-18.68,4.68-29.15-.8-2.85-1.14-5.91-1.19-8.88-.11-6.33-3.65-11.01-7.57-15.19-3.37-3.6-5.71-7.46-6.08-12.21-.39-5.08,1.33-10.5-3.61-14.1,1.71-1.98,3.85.42,5.25-2.43-4.13.21-7.54-2.05-8.1-5.19-1.07-6.05-6.16-8.63-9.12-12.97-1.46-2.13-3.21-4.07-3.49-5.3,5.53-2.38,6.09-10.21,12.72-10.38-1.65,1.87-3.02,3.48-4.45,5.03-1.33,1.44-1.65,2.92-.13,4.35,1.52,1.43,2.21-.13,3.18-.96,1.28-1.1,2.71-2.01,4.08-3-1.13,2.07-2.75,3.52-4.06,5.21-1.92,2.49.47,3.54,1.95,4.67,1.36,1.03,3.83,3.04,4.44.63.85-3.38,4.17-3.28,5.61-5.65,1.16-1.91,3.46-3.21,6.23-3.9-1.44,4.1-7.9,5.13-5.04,10.64-2.99-1.15-5.35-.84-6.79,2.51-.4.95-2.06,1.63-.83,2.79,1.19,1.11,2.86,1.18,3.9-.29,1.2-1.7,3.07-2.95,3.62-5.11,4.61,2.4-2.32,3.45-.41,5.47,3.12-.53,3.01-.58,4.1-3.3,1.66-4.15,4.15-7.64,8.43-9.46-.2.67-.61,1.13-1.05,1.57-5,5.11-6.64,5.89-3.58,15.37.16.5-.09,1.35-.46,1.76-2.57,2.83-1.12,4.63,1.79,5.84-1.7,1.35-4.15-.21-5.01,2.26,2.87,2.89,5.29,1.41,7.49-.93,2.13,3.81-3.41,5.39-2.24,8.73,2.47.51,2.84-2.34,4.19-2.47,1.94,4.15,4.94,7.8,4.83,12.53,0,.25.77.56,1.22.78,7.59,3.79,15.82,4.13,23.88,3.25,4.86-.53,6.64-7.06,3.28-10.83-3.95-4.44-6.46-10.14-11.87-13.32-1.58-.93-1.38-1.26-.65-4.61,5.7,7.7,14.09,13.29,16.62,23.23.52,2.04,3.29,2.18,4.71,1.22,2.09-1.42-.5-2.35-1.1-3.43-.91-1.65-2.04-3.17-3.36-5.19,2.03.18,2.35,2.31,4.05,1.42,3.06-1.59-.66-4.17,1.03-6.22,1.98,3.5,5.45,4.77,8.54,6.57.82.48.49,2.64,2.29,1.74,1.65-.83.85-2.19.59-3.48-.37-1.83-.48-3.67,1.25-5.15-1.04,3.7.34,6.25,3.22,8.22,1.15.79,1.63.03,2.43-.69,2.91-2.6.61-4.59-1.51-7.18,5.31,2.66,5.28,2.65,6.62-2.55.34-1.31.33-3.04,2.73-3.05.36,3.76-1.88,8.05,2.05,11.01-1.44.1-2.72-2.52-4.3-.21-1.19,1.73-.03,2.78,1.05,3.8,1.35,1.28,3.1,2.76,4.78,1.39,2.46-2-.7-2.87-1.36-4.26-.14-.29-.23-.61-.35-.91ZM840.49,224.46c2.35.44,4.13.9,5.93,1.09,8.27.87,15.76,3.21,22.14,9.05,4,3.66,8.69,7.19,14.17,8.02,12.12,1.83,21.13,8.74,29.7,16.65,2.32,2.14,4.57,4.47,7.23,6.12,6.82,4.25,12.95,9.19,17.89,15.56.78,1.01,1.9,1.87,3.03,2.48,7.27,3.9,16.02,4.49,22.59,10.03.48.4,1.64.33,2.31.07.78-.31.44-1.28.09-1.73-2.24-2.9-1.3-6.83-3.31-9.83-1.88-2.81-1.9-5.87-.88-9.09,1.44-4.56-1.65-9.11-.24-13.73.09-.3-.42-.86-.75-1.2-4.1-4.12-9.37-5.04-15.03-2.54-4.52,2-8.58,2.32-13.3-.41-7.26-4.19-13.32-9.91-20.25-14.46-8.45-5.55-15.15-14.1-26.18-15.25-.42-.04-1.09-.42-1.14-.74-.81-4.4-4.75-5.48-7.9-6.15-7.3-1.54-14.32-3.93-21.45-5.97-4.17-1.19-7.34-.55-9.31,3.96-1.17,2.68-3.24,4.96-5.35,8.08ZM880.44,156.08c-.13-.77-.6-1.96-.45-3.06.73-5.33-2.41-3.43-4.79-2.55-.81.3-1.41,1.33-1.98,2.11-1.98,2.75-4.8,4.57-7.98,4.52-3.26-.05-5.54,2.02-8.43,2.61-1.84.37-2.66,2.22-2.86,3.77-.26,2.05,1.87,1.85,3.16,2.28,2.71.9,5.38,1.91,7.44,3.92,1.57,1.53,3.25,1.43,5.07.93,5.97-1.64,10.75-7.91,10.81-14.54ZM729.35,362.05c-1.68-4.58-4.89-9.22,1.02-12.73,4.72-2.8,4.2-5.6,1.17-9.42-1.82-2.29-2.85-2.21-4.39-.11-2.93,3.99-5.9,7.94-8.79,11.96-1.53,2.13-.82,3.47,1.05,5.41,2.83,2.94,7.59,1.05,9.94,4.89ZM963.68,254.43c-2-6.98-10.77-11.61-17.26-9.46-3.47,1.14-4.99,4.93-4.51,6.89.73,2.94,3.9.47,5.78-.2,3.43-1.23,6.43-.78,9.53.89,1.84.99,3.64,2.37,6.47,1.87ZM1105.89,350.8c-.1-1.67.61-3.54-1.23-4.13-1.62-.52-3.41.33-4.39,1.59-1.16,1.49-1.39,4.06.05,4.98,3.36,2.14,1.58,4.23.17,5.83-1.33,1.51-1.51,3.21-2.05,4.87-.32,1.01-1.56,2.3-.27,3.09.74.45,2.15-.15,3.24-.36,1.72-.34,1.99-1.87,2.74-3.16,2.39-4.14-.1-8.82,1.74-12.71ZM759.53,529.01c-.79,1.65-1.78,2.89-1.9,4.21-.12,1.28-1.06,3.42,1.85,3.58,2.18.12,2.85-.66,3.16-2.7.61-4.03-.24-6.73-4.41-8.6-3.57-1.6-2.79,2.42-4.64,2.68-.68.1-2.02-1.66-1.9.47.06.98,1.07,2.01,1.87,2.79.72.7,1.5.17,2.09-.51.85-.98,1.55-2.22,3.87-1.93ZM799.47,464.72c-3.44,2.32-5.81,4.57-5.95,8.49-.04,1.17.21,3.11-1.75,2.58-1.81-.49-2.59.11-2.9,1.57-.23,1.1.73,1.82,1.65,2.23,1.53.68,2.61-.18,3.3-1.41.95-1.71,1.28-4.5,2.65-5.11,4.02-1.81,3.08-4.74,3.01-8.34ZM940.52,393.62c-3.05,5.52-1.82,8.43,3.38,9.66.64.15,1.18.09,1.53.73.69,1.26,1.57,2.47,2.92.84,1.21-1.46-.19-2.41-1.15-3.23-2.61-2.27-6.43-3.4-6.69-7.99ZM745.59,244.9c-5.45-1.75-8.64,1.64-12.29,4.06,4.61,3.3,4.87,3.22,12.29-4.06ZM864.7,384.27c-.07-1.07-.83-2.01-1.74-1.86-2.85.46-4.82,2.61-5.3,5.1-.58,3.05,3.01,4.11,4.58,3.86,4.32-.69-.89-5.35,2.45-7.1ZM739.4,565.34c-.54-1.48-2-2.51-3-2.04-2.26,1.04-4.6,2.66-4.73,5.42-.07,1.53,2.11,2.8,3.26,2.38,2.42-.9,3.21-3.58,4.48-5.75ZM740.82,551.6c.07-1.37-.29-1.96-.96-2.11-1.27-.28-3.63-.4-3.53.49.36,3.31-5.04,3.74-3.35,7.28.38.8,1.7,1.77,2.43,1.01,2.08-2.2,3.85-4.7,5.41-6.67ZM807.8,464.92c-1.62,1.81-3.28,3.59-4.85,5.44-.63.75-1.41,1.83-.54,2.64.61.57,1.86.81,2.76.68,5.68-.81,3.04-5.14,2.63-8.77ZM842.83,434.55c-.68,2.32,3.05,2.02,2.51,4.23-1.02.93-1.83-.1-2.71-.31-1.09-.26-2.31-1.05-3.01.47-.52,1.13.48,1.82,1.18,2.48,1.95,1.87,3.62,2.6,5.41-.46,2.27-3.89,2.02-4.64-3.37-6.41ZM728.26,531.63c.35-.16,1.08-.29,1.16-.59.69-2.61,2.41-4.51,4.09-6.49.61-.72-.07-1.53-.68-2.11-.5-.48-1.22-.86-1.73-.32-2.18,2.27-3.61,5.02-4.55,8-.1.31.71.93,1.12,1.37.09.1.31.08.58.15ZM750.7,531.1c-1.72,1.01-2.99,2.46-3.02,4.32-.03,1.62,1.4,2.8,2.99,2.78,2.31-.02,2.44-1.87,2.22-3.62-.18-1.44-.39-2.97-2.19-3.47ZM880.01,388.05c1.64,0,2.73-1.19,2.36-2.44-.61-2.11-3.04-2.13-4.77-2.79-1.3-.49-1.53.75-1.54,1.79-.04,2.69,1.94,3.08,3.95,3.44ZM735.37,515.34c-1.53-.38-2.28.91-2.51,2.52-.23,1.69.69,3.22,2.3,3.31,1.76.1,3.12-1.35,3.46-3.07.38-1.94-1.11-2.53-3.26-2.76ZM781.89,502.23c2.64-2.41,5.64-3.61,5.69-7.11.01-.94-1.43-.91-2.07-.61-2.78,1.31-4.02,3.59-3.62,7.72ZM859.26,396.9c1.68.12,2.93-.62,2.59-1.87-.63-2.37-3.23-2.53-5.07-3.44-1.15-.56-2.02.75-1.92,1.61.31,2.64,2.92,2.72,4.4,3.69ZM804.17,458.02c-2.27,2.85-3.16,5.6-1.93,9.76,3.05-3.47,4.53-6.13,1.93-9.76ZM720.86,572.19c-1.79.18-2.61,1.51-2.77,2.96-.19,1.71,1.2,2.85,2.66,3.03,1.57.18,1.94-1.52,2.31-2.7.6-1.88-.82-2.59-2.21-3.28ZM851.5,445.18c-.29-1.6-1.29-2.93-2.72-3.14-1.93-.27-2.38,1.89-2.39,3.03,0,1.52,1.59,2.45,3.14,2.52,1.48.07,1.65-1.31,1.96-2.41ZM761.38,546.76c.61-6.76-.11-7.25-8.16-7.08,2.14,2.97,6.04,2.92,8.16,7.08ZM740.48,556.66c-1.57.26-2.34,1.51-2.48,2.73-.25,2.14,1.8,2.64,3.24,3.07,1.32.39,2.17-.91,2.11-2.12-.09-1.76-1.15-3.03-2.86-3.67ZM819.08,471.47c2.55.4,4.23-.62,5.8-1.77,1.26-.93,1.43-2.13.27-3.34-1.21-1.25-1.83-.32-2.74.54-1.31,1.25-2.51,2.5-3.33,4.57ZM773.93,424.89c3.1-.43,2.67-4.15,5.17-4.99.51-.17.19-1.54-.37-2.19-.78-.89-1.48-.26-2.04.29-1.86,1.84-3.52,3.8-2.75,6.89ZM837.53,442.9c-1.09.38-1.89,1.33-1.58,2.18.69,1.91,2.22,3.32,4.26,3.59.98.13,1.84-1.05,1.53-2.06-.6-2.01-2.35-2.95-4.21-3.72ZM799.96,480.86c1.52-.56,3.86-.5,4.55-2.74.45-1.46-1.6-2.37-2.15-1.86-1.54,1.41-3.87,1.83-4.93,3.14-1.08,1.34,1.18,1.18,2.53,1.47ZM1059.82,315.38c1.04,1.67,2.84,2.16,4.33,2.03,1.98-.16,4.26,1.9,5.95-.57.2-.29.18-1.08-.03-1.25-.48-.37-1.58-.79-1.67-.66-2.42,3.38-4.13.72-6.06-.58-.45-.31-1.23-.34-1.79-.21-.31.08-.47.76-.73,1.23ZM856.49,382.7c-.28-1.55-1.45-2.34-2.77-2.42-1.81-.11-2.11,1.46-1.95,2.79.16,1.32.86,2.94,2.27,2.96,1.86.02,1.81-2.04,2.45-3.33ZM745.15,557.75c1.51.06,2.07-1.06,2.31-2.12.52-2.23-1.19-2.81-2.83-3.15-1.27-.27-2.46.25-2.43,1.68.03,1.83,1.51,2.76,2.95,3.59ZM884.19,380.34c-.62-1.92-2.51-2.86-4.18-3.62-1.49-.69-2.02,1.19-2.01,2.12.04,2.4,2.34,2.36,3.93,2.97,1.13.44,1.92-.03,2.26-1.46ZM856.79,420.74c-.2-1.69-1.34-2.89-2.77-2.92-1.79-.04-2.33,1.88-2.23,3.2.1,1.45,1.34,2.79,2.97,2.64,1.47-.13,1.71-1.69,2.03-2.92ZM778.49,427.88c-2.99,1.8-5.28,3.46-3.45,7.28,2.93-1.63,4.4-3.64,3.45-7.28ZM847.57,428.5c-1.65.06-2.18,1.39-2.39,2.58-.28,1.59,1.17,2.28,2.34,2.72,1.76.66,2.35-.8,2.59-2.08.34-1.85-1.33-2.36-2.54-3.22ZM1076.9,317.11c-.18-1.06-.59-2.7-1.38-2.23-1.67,1.01-3.04,2.62-4.24,4.2-.36.48.6,1.51,1.51,1.42,2.12-.22,3.54-1.38,4.11-3.4ZM853.33,432.92c-1.44.17-2.08,1.16-2.03,2.35.08,2.08,1.85,2.48,3.43,2.7,1.42.2,2.13-.93,2.05-2.13-.14-2.03-2.23-2.04-3.45-2.92ZM1087.07,371.58c1.41,3.22,3.36,3.61,5.55,2.65.82-.36,1.44-1.89.84-2.56-1.86-2.03-3.82.17-6.39-.1ZM855.23,446.44c-1.66.14-1.92,1.35-1.65,2.49.34,1.48.24,3.62,2.47,3.65,1.27.01,1.83-1.31,1.84-2.54.02-1.85-.83-3.13-2.66-3.6ZM838.65,451.84c-.89-1.54-1.84-3.22-3.97-3.65-.83-.17-1.21.51-1.14,1.17.21,2.01,1.27,3.81,2.82,4.81.91.59,1.8-.95,2.29-2.33ZM832.57,460.73c1.61-.6,2.07-1.95,2.16-3.44.15-2.5-2.43-1.48-3.55-2.44-.62-.53-1.74,1.3-1.63,2.38.17,1.71,1.3,2.89,3.02,3.51ZM788.55,445.24c-2.17.16-2.16,2.02-2.5,3.53-.25,1.13-.07,2.95,1.05,2.75,1.72-.3,2.96-1.96,3.31-3.83.24-1.28-.46-2.15-1.87-2.46ZM873.76,381.44c-.41-1.59-1.44-2.77-3-2.7-1.51.07-2.06,1.64-2.06,2.91,0,1.57,1.47,2.13,2.74,2.33,1.85.3,1.77-1.44,2.32-2.54ZM856.57,408.76c1.75-.69,2.45-2.4,3-4.07.33-1.02-.77-1.56-1.51-1.52-2.19.12-2.97,1.92-3.45,3.65-.31,1.13.67,1.73,1.95,1.95ZM964.92,426.45c.42-1.51-.34-1.91-1.46-2.1-1.97-.32-2.7.7-2.73,2.48-.02,1.15-.11,2.52,1.55,2.5,1.88-.03,2.11-1.76,2.64-2.88ZM740.41,528.25c.04-1.41-.74-2.21-2.05-2.27-1.5-.07-2.57.87-2.77,2.29-.27,1.95,1.42,1.91,2.66,2.02,1.35.12,2.18-.57,2.15-2.03ZM1077.61,512.13c2.95,3.17,6.58,5.19,10.82,6.03-3.2-2.71-6.76-4.73-10.82-6.03Z"/>
  <path class="cls-1" d="M877.72,172.85c4.88-.3,9.77-.82,14.65-.85,33.87-.22,67.75.03,101.62-1.06,8.8-.28,17.61-.16,26.41-.16,1.41,0,3.56-.31,3.6,1.6.03,1.73-1.95,1.85-3.49,1.81-16.44-.4-32.87.46-49.32.21-22.45-.34-44.93.13-67.39.49-8.72.14-17.41.31-26.08-.46,0-.53,0-1.05-.01-1.58Z"/>
  <path class="cls-1" d="M960.02,186.45c-11.65,0-23.31-.05-34.96.05-2.21.02-5.24-1.2-5.79,2.77-.15,1.06-1.37,1.03-1.97.39-2.5-2.72-6.01-2.42-9.15-3.22-.65-.17-1.38-.15-1.5-.97-.15-1.04.59-1.55,1.44-1.66,1.81-.24,3.66-.61,5.45-.46,12.78,1.1,25.53-.36,38.29-.39,14.79-.04,29.58-.12,44.37-.15,1.53,0,3.93-.73,3.96,1.69.04,2.92-2.66,1.8-4.2,1.81-11.98.1-23.97.05-35.96.05,0,.02,0,.05,0,.07Z"/>
  <path class="cls-1" d="M957.18,198.26c.75-1.98,1.9-1.69,2.77-1.7,24.27-.27,48.53-.46,72.8-.77,13.4-.17,26.8-.52,40.21-.79,1-.02,2-.07,2.99-.04,1.02.03,2.17.22,2.3,1.38.14,1.2-1.05,1.7-1.96,1.86-1.46.26-2.98.24-4.47.24-31.62-.05-63.23-.34-94.85.61-6.49.2-13.01-.5-19.79-.8Z"/>
  <path class="cls-1" d="M873.33,525.2c-1.65,3.03-4.39,2.24-6.71,2.25-21.23.1-42.46.18-63.69.11-6.65-.02-13.24,1.21-19.92.49-1.69-.18-3.78.37-3.67-2,.1-2.2,2.33-1.36,3.63-1.37,23.49-.13,46.98-.13,70.47-.33,2.41-.02,6.01,1.51,6.7-2.99.11-.7,1.28-.84,1.67-.43,3.1,3.26,7.74,2.45,11.53,4.27Z"/>
  <path class="cls-1" d="M1029.12,117.28c-12.73,1.44-25.13.79-37.49.99-16.48.27-32.96.15-49.44.18-3.33,0-6.65.02-9.98-.11-1.38-.05-3.55.21-3.42-1.81.11-1.72,2.13-1.07,3.35-1.08,19.81-.05,39.63,0,59.44-.11,10.49-.06,20.98-.41,31.47-.54,2.01-.02,4.43-.86,6.07,2.48Z"/>
  <path class="cls-1" d="M1008.19,183.88c3.72-.26,7.44-.7,11.17-.76,13.03-.22,26.06-.32,39.09-.44,1.33-.01,2.66.11,3.99.17,1.4.07,2.94.32,2.8,2.06-.18,2.32-2.24,1.51-3.53,1.52-14.79.04-29.59.03-44.38-.06-3.1-.02-6.31.31-9.14-2.49Z"/>
  <path class="cls-1" d="M682.99,528.14c-1.63-1.1-3.26-2.19-5.04-3.39-1.89,4.09-3.7,7.98-5.9,12.73-.84-2.8,1.12-4.83-.83-6.96-2.14-2.34-3.55-1.1-6.21.75,1.42-3.92,3.99-7.08.62-9.63-2.32-1.76-2.36,2.14-4.53,2.3,1.25-3.36,5.05-6.4.97-10.24q3.24,2.61,7.13-5.35c.52,2.96-.88,5.05-1.95,7.11-1.01,1.95-1.17,3.62-.17,5.63,1.37,2.74,2.41,3.22,4.31.33,2.5-3.83,5.36-7.43,8.57-10.8-1.34,5.15-4.96,8.98-7.79,13.18-1.97,2.93-1.65,4.71,1.08,6.7,3.36-3.8,2.17-9.59,6.01-13.35-2.5,5.07,1.97,7.61,3.62,11.12l.11-.13Z"/>
  <path class="cls-1" d="M891.08,512.53c-12.63,2.16-25.29,2.3-37.97,1.85-2.3-.08-4.6,0-6.91-.02-.97-.01-2.21.12-2.25-1.28-.03-1.35,1.2-1.43,2.17-1.46,8.24-.27,16.56.06,24.72-.93,7-.85,13.41,2.08,20.25,1.83Z"/>
  <path class="cls-1" d="M1083.47,546.24c-.4,2.6-2.31,2.14-3.88,2.15-14.79.04-29.58.05-44.36.04-1.05,0-2.66.43-2.63-1.31.02-1.14,1.29-1.33,2.33-1.33,15.78-.02,31.55-.04,47.33-.03.4,0,.81.32,1.21.49Z"/>
  <path class="cls-1" d="M815.09,163.7c-16.62.98-33.25.7-49.87.59,0-.79,0-1.59,0-2.38h49.88c0,.6,0,1.19,0,1.79Z"/>
  <path class="cls-1" d="M1014.15,547.71c-.55,1.83-2.18,1.62-3.59,1.62-14.44.04-28.88.05-43.31.05-.93,0-2.31.39-2.49-.91-.23-1.66,1.29-1.67,2.41-1.68,15.13-.05,30.25-.06,45.38-.05.58,0,1.38-.04,1.61.96Z"/>
  <path class="cls-1" d="M1140.14,236.51c-16.49.92-32.98,1.17-49.47.45,0-.73-.01-1.46-.02-2.19h49.45l.03,1.73Z"/>
  <path class="cls-1" d="M996.73,164.03c4.51-3.22,46.31-2.84,49.55.33-16.86,1.22-33.17-.19-49.55-.33Z"/>
  <path class="cls-1" d="M747.18,163.42c-.91,1.82-2.46,1.67-3.93,1.68-13.98.12-27.96.28-41.94.27-1.72,0-4.83,1.12-4.88-1.45-.04-2.06,3.01-1.29,4.71-1.3,14.32-.1,28.64-.11,42.95-.14.97,0,2-.24,3.09.93Z"/>
  <path class="cls-1" d="M1046.7,238.39c-6.56,0-13.55.05-20.53-.04-1.49-.02-4,.67-4-1.62,0-1.9,2.38-1.23,3.73-1.24,14.64-.14,29.28-.19,43.92-.26,1.13,0,2.75-.29,2.63,1.34-.1,1.42-1.77,1.24-2.88,1.23-7.49-.05-14.98-.3-22.87.59Z"/>
  <path class="cls-1" d="M617.95,305.81c-2.74,4.99-7.7,8.1-10.57,13.11-2.47-3.87,5.82-4.98,1.66-9-1.97-1.9-3.46-.65-5.92,1.77,1.31-3.46,1.19-5.36,3.88-6.86,5.46-3.04,4.89-6.34-1.09-9.41,1.68-3.25,4.94-4.45,7.87-6.65-.25,3.5-6.73,3.38-3.89,7.55,3.24,4.75,4.83-2.17,8.35-1.46-3.27,2.57-4.39,5.24-.9,8.03-3.42-2.41-5.79-1.16-7.9,2-.99,1.48-1.27,2.39.24,3.69,3.38,2.89,4.88-.72,7.08-1.88.43-.23.79-.59,1.18-.89Z"/>
  <path class="cls-1" d="M647.8,401.58c.98-2.13,1.96-4.26,2.94-6.38-5.36,3.83-7.97,9.63-11.7,14.61,5.77-11.9,13.68-22.3,22.66-32.92-1.67,6.02-9,19.31-13.9,24.69Z"/>
  <path class="cls-1" d="M1049.79,509.7c-12.25-7.77-23.83-16.38-33.18-27.66,10.19,10.28,22.48,17.99,33.18,27.66Z"/>
  <path class="cls-1" d="M650.09,496.41c4.14-14.15,6.54-28.86,16.29-40.71-6.26,13.29-10.82,27.23-16.29,40.71Z"/>
  <path class="cls-1" d="M989.81,609.67c-11.88.08-22.37,1.79-33.63-.16,5.85-2.34,27.3-2.4,33.63.16Z"/>
  <path class="cls-1" d="M790.81,101.56c10.7-.26,21.41-1.95,32.1.15-10.69,1.56-21.38,2.31-32.1-.15Z"/>
  <path class="cls-1" d="M660.81,396.46c-7.77,11.93-14.16,24.54-20.64,37.11,4.19-13.89,12.25-25.64,20.64-37.11Z"/>
  <path class="cls-1" d="M643.42,458.58c4.89-13.68,10.75-26.74,18.6-38.83-5.05,13.55-13.57,25.44-18.6,38.83Z"/>
  <path class="cls-1" d="M682.88,528.27c2.88,2.72,5.76,5.44,9.2,8.69-3,.16-3.64-1.72-4.96-2.5-1.34-.79-2.63-3.92-4.13-1.62-1.37,2.09-4.62,5.87-1.1,7.78,6.4,3.46.27,4.5-.4,7.83-1.08-3.07,1.15-5.29-1.37-6.99-2-1.35-2.34,1.48-4.18.92.88-5.48,5.7-9.04,7.04-14.22.01-.01-.1.12-.1.12Z"/>
  <path class="cls-1" d="M883.71,594.07c-3.71,2.56-6.87,2.18-9.91,2.1-3.98-.11-7.96-.38-11.94-.62-.82-.05-1.69-.15-1.95-1.17-.19-.76.18-1.44.89-1.43,7.29.11,14.67-.88,22.91,1.12Z"/>
  <path class="cls-1" d="M1066.64,169.84c2.81,0,5.62-.01,8.43,0,1.05,0,2.09.32,2.15,1.53.05,1.17-1.09.98-1.83,1.07-5.92.66-11.86,1.34-17.79.12-.86-.18-2.29.17-2.14-1.3.11-1.07,1.17-1.51,2.25-1.52,2.98-.01,5.95,0,8.93,0v.1Z"/>
  <path class="cls-1" d="M1066.04,523.83c-3.59-5.13-9.83-7-13.7-11.96,10.33,5.92,19.92,13.11,30.67,18.41-5.97-1.7-11.19-5.07-17.13-6.57,0,0,.16.12.16.12Z"/>
  <path class="cls-1" d="M937.13,512.17c-.79,2.1-2.13,2.18-3.41,2.18-5.63,0-11.26-.07-16.9-.09-1.03,0-2.23.03-2.38-1.19-.15-1.25,1.09-1.59,2.05-1.71,6.87-.86,13.69-.8,20.64.81Z"/>
  <path class="cls-1" d="M896.48,117.87c1.21-3.05,2.57-3.08,3.88-3.08,5.62.03,11.23.13,16.85.16,1.3,0,2.57.36,2.65,1.66.11,1.83-1.53,1.24-2.55,1.24-6.7.03-13.39.01-20.83.01Z"/>
  <path class="cls-1" d="M703.57,196.81c6.47-1.55,13-1.1,19.5-1.09.66,0,1.34.3,1.44,1.1.14,1.07-.63,1.51-1.47,1.57-6.54.43-13.08.89-19.47-1.58Z"/>
  <path class="cls-1" d="M1029.4,268.61c6.39,0,12.77-.02,19.16.03.6,0,1.42.13,1.52.99.11,1-.55,1.59-1.42,1.65-6.54.43-13.08.87-19.47-.75.07-.64.14-1.28.21-1.92Z"/>
  <path class="cls-1" d="M808.06,548.23c3.77-3.2,14.68-3.23,18.87-.35-6.37,1.26-12.25.59-18.87.35Z"/>
  <path class="cls-1" d="M647.14,434.2c3.84-7.14,4.52-15.84,10.94-21.59-3.42,7.34-5.37,15.39-10.94,21.59Z"/>
  <path class="cls-1" d="M665.83,470.65c-1.62,7.4-5.09,14.2-7.32,21.42-.92-8.21,4.22-14.48,7.32-21.42Z"/>
  <path class="cls-1" d="M619.85,451.06c-5.18-8.42,3.74-11.53,4.92-17.1-.68,5.64-2.52,10.93-4.92,17.1Z"/>
  <path class="cls-1" d="M667.32,441.68c-4.63,9.4-9.26,18.79-13.89,28.19,3.52-9.94,7.45-19.67,13.89-28.19Z"/>
  <path class="cls-1" d="M811.08,116.6c-5.47.76-10.9,1.41-16.19-.51,5.46-1.21,10.91-2.18,16.19.51Z"/>
  <path class="cls-1" d="M970.9,163.59c-5.91,2.03-11.86,1.56-17.82.17,5.9-2.69,11.86-1.72,17.82-.17Z"/>
  <path class="cls-1" d="M984.49,594.85c-5.34.72-10.68,1.99-16.02-.32,5.34-1.63,10.68-1.95,16.02.32Z"/>
  <path class="cls-1" d="M896.06,486.15c-4.29,3.25-7.64,2.45-11.53.7,3.62-3.68,7.13-1.44,11.53-.7Z"/>
  <path class="cls-1" d="M608.19,380.25c-.74,4.55-1.18,9.03-3.63,12.98,1.01-4.33-2.61-9.87,3.63-12.98Z"/>
  <path class="cls-1" d="M692.79,516.59c-4.2-4.11-6.42-9.8-10.79-13.87,5.22,3.3,8.22,8.38,10.79,13.87Z"/>
  <path class="cls-1" d="M648.39,464.26c.25-5.31,2.34-9.83,6.1-13.63-2.03,4.54-4.07,9.09-6.1,13.63Z"/>
  <path class="cls-1" d="M627.21,299.25c3.76,3.06,7.51,6.12,11.27,9.18-5.14-1.26-8.4-4.9-11.27-9.18Z"/>
  <path class="cls-1" d="M618.01,394.13c-3.36,3.8-6.73,7.61-10.09,11.41,1.7-5.28,6.11-8.18,9.08-12.33.34.31.67.61,1.01.92Z"/>
  <path class="cls-1" d="M658.23,442.89c.17-3.67.64-7.17,4.06-10.34-.18,4.52-1.35,7.75-4.06,10.34Z"/>
  <path class="cls-1" d="M623.87,249.61c4.51-2.29,9.08-4.07,14.26-3.18-4.8.98-9.71,1.5-14.26,3.18Z"/>
  <path class="cls-1" d="M1012.07,477.82c-2.24-2.98-6.68-3.66-8.9-8.36,4.92,1.9,7.24,4.79,8.9,8.36Z"/>
  <path class="cls-1" d="M739.91,421.46c.36-3.75,3.33-4.68,6.68-6.73-1.32,4.13-4.43,5.01-6.68,6.73Z"/>
  <path class="cls-1" d="M663.9,488.54c-.89-4.82,2.03-8.07,4.6-11.47-1.53,3.82-3.07,7.65-4.6,11.47Z"/>
  <path class="cls-1" d="M724.09,255.87c-2.92,1.55-4.41,4.89-7.82,5.87,1.37-3.38,3.75-5.61,7.82-5.87Z"/>
  <path class="cls-1" d="M628.1,470.44c.28-3.09,1.32-5.87,3.97-9.32-.33,4.39-1.81,6.99-3.97,9.32Z"/>
  <path class="cls-1" d="M703.45,505.79c-2.69-3.67-5.64-7.19-6.86-11.74,2.57,3.76,6.19,6.91,6.75,11.84,0,0,.1-.1.1-.1Z"/>
  <path class="cls-1" d="M617.13,379.18c-.37,3.95-1.4,7.62-4.44,10.4,1.48-3.47,2.96-6.94,4.44-10.4Z"/>
  <path class="cls-1" d="M793.38,344.39c3.25,6.41,5.72,12.82,12.61,15.22,2.87,1,3.83,2.12,2.88,4.99-.29.88-.02,1.97.11,2.95.37,2.84,1.45,4.24,3.82,1.42,3.06-3.64,5.96-2.2,9.22.49-5.88-3.39-8.37.63-10.57,4.45-2.19,3.8.33,7.17,1.53,10.92q1.85-2.75,1.74-9.01c1.08,4.36,3.85,2.8,7.23,1.5-2.35,3.26-5.49,5.16-2.29,8.75,2.31,2.59,3.39-.08,5.52-.59-1.2,3.08-3.26,5.15-5.06,7.34-2.54,3.1-4.99,6.24-6.51,9.99-.36.88-.42,2.2-1.81,1.81-1.56-.44-1.25-1.89-.97-2.94.97-3.69,3.63-6.27,6.15-8.92.91-.96,2.02-1.87,2.55-3.03.73-1.6-1-2.23-1.86-3.12-1.15-1.19-2.05-.57-2.75.59-1.28,2.13-2.65,4.22-3.77,6.43-.83,1.65-1.49,3.28-4.28,3.48,2.54-4.47-.67-8.54-.13-13.19,1.48,2.25.85,4.85,2.76,6.91,4.65-4.73-.08-9,.04-14.57-5.38,5.7-8.16,11.6-10.91,17.86-1.34-4.11-.64-6.36,3.42-12.66,1.02-1.59,2.98-2.9,1.98-5.28-.42-.98-.07-2.63-1.75-2.55-1.06.05-1.68,1.11-1.85,2.1-.98,5.84-7.48,8.35-8.25,14.36-1.65-4.06.76-6.93,2.24-10.04.98-2.07,2.72-3.86,2.24-6.44-.16-.83-.3-1.81-1.21-1.97-.91-.16-1.73.73-1.77,1.44-.23,4.32-5.4,5.13-6.14,9.13-1.42-4.27,3.8-7.85.67-12.38-4.03,2.96-5.83,7.59-8.97,12.51-.69-9.81,10.61-13.87,8.11-23.88-3.23,4.49-6.13,8.51-9.72,13.48-.32-5.74,4.6-8.06,5.06-12.76-3.79,1.07-3.78,5.2-7.59,7.13,4.48-9.73,10.49-16.55,18.3-21.92ZM789.73,361.36c6.96-3.46,7.92-6.78,3.76-12.17-.67-.87-1.29-2.35-2.55-.84-.86,1.02-2.78,2.53-.07,3.51,1.18.43,1.52.7.58,1.4-3.01,2.25-1.96,5.13-1.71,8.1ZM795.98,363.53c-.28-1.07.1-3.21-1.28-2.7-3.02,1.12-4.33,3.93-4.41,7.13-.03,1.02-.17,3.1,1.27,2.63,3.16-1.05,4.15-3.98,4.42-7.07ZM808.23,371.49c-.33-.87.3-2.79-1.31-2.97-1.54-.17-2.62,1.3-2.6,2.95.02,1.52-.31,3.78,1.82,3.83,1.64.04,1.66-2.1,2.09-3.82ZM799.36,372.08c1.4-2.43,3.83-3.91,2.78-6.75-.39-1.05-1.34-.39-1.97.14-1.99,1.69-3.57,3.47-.82,6.61Z"/>
  <path class="cls-1" d="M819.22,307.01c.45,4.67.52,8.95.92,13.19.92,9.7,7.18,13.94,15.35,16.66,2.39.8,4.83,1.12,2.94,4.92-.77,1.56.38,4.07.71,6.53-4.76-1.06-2.29-6.32-5.05-8.14-2.34.77-.42,3.02-1.55,3.84-1.53,1.12-1.99-1.29-3.27-1.52-.77,2.49,1.25,4.49.85,7.28-4.48-4.08-9.88-7.2-6.5-14.44.4-.87.51-2.16-.72-2.49-1.38-.36-1.5.98-1.71,1.9-.71,3.18-1.58,6.35-1.95,9.57-.33,2.91.92,4.86,3.04,7.44,3.98,4.84,10.48,5.82,14.01,10.79-7.22-2.44-14.62-4.55-19.18-11.3-1.13-1.68-4.81-3.58.07-5.45.52-.2.24-2.45.38-4.47-2.55,4.06-4.82,3.97-6.2.27-3.07-8.24-4.04-16.6.58-24.65,1.94-3.39,2.21-8.09,7.25-9.91Z"/>
  <path class="cls-1" d="M861.01,301.23c.72,5.55-4.65,7.12-7.04,10.64-.89,1.32-3.05,2.4-1.34,4.01,1.42,1.33,2.55-.76,3.62-1.59,2.47-1.9,4.36-4.91,9.74-4.02-5.69,2.13-8.57,5.28-10.26,9.57-.79,1.99-1.94,2-3.29.37-.95-1.15-1.73-3.36-3.69-.99-1.52,1.85-1.85,3.87.54,4.93,5.77,2.56,1.79,4.68.08,7.33-1.24-2.57.62-8.36-5.45-4.38-1.4.92-1.44-1.19-1.44-2.26,0-3.96,0-3.95-3.95-4.73-1.55-.3-.99-1.52-.82-2.35.36-1.75.56-3.61-1.36-4.27-1.94-.67-2.27,1.41-2.96,2.63-.51.91-1.03,1.86-2.24,1.13-.85-.51-.84-1.73-.4-2.24,3.72-4.23,1.6-8.18-.38-12.2-.73-1.48-.68-2.89.93-3.91,1.97.57.56,2.31,1.2,3.31.94,1.46,1.08,4.1,3.01,4.07,2-.03,3.47-2.31,3.86-4.09.29-1.33.57-4.35-2.84-3.65-1.22.25-.82-.75-.69-1.22.34-1.18,1.18-2.01,2.32-2.42.87-.31,1.82-.08,2.05.84,1.85,7.41,4.14,1.46,5.76.03,3.5-3.08,5.93-7.45,11.24-9.4-.07,2.78-1.96,3.59-2.89,4.96-.58.85-1.3,1.79-.44,2.65.98.99,1.8-.09,2.47-.7,2-1.79,3.54-4.34,7.4-3.74-5.89,2.21-8.12,5.88-5.17,11.78-2.56.11-5.3-2.18-6.56,1.54-.48,1.41.08,2.21.79,3.12.89,1.15,1.93,1.24,2.97.25,1.75-1.67,4.35-2.48,5.23-5.04l-.02.02ZM845.15,311.71c-1.54.99-3.16,2.16-3.09,4.06.06,1.62,1.47,3.57,2.97,3.29,1.56-.29,2.72-2.34,2.74-4.14.02-1.46-1.07-2.64-2.62-3.22ZM841.2,305.64c-1.98,1.18-2.87,3.07-2.99,5.31-.06,1.09.88,2.33,1.74,1.88,1.87-.97,3.51-2.58,3.48-4.91-.01-1.04-.67-2.25-2.23-2.27Z"/>
  <path class="cls-1" d="M948.26,343.46c-.78-3.17,2.36-6.43-1.44-9.52.15,8.98-7.29,4.62-11.09,7.12.27-4.61,4.45-9.72,8.31-10.31,3.46-.53,5.99.91,6.97,4.15.95,3.16,1.18,6.47-2.74,8.56Z"/>
  <path class="cls-1" d="M1096.24,398.53c9.49-9.49,16.32-20.36,17.82-34,1.78,15.24-6.79,25.25-17.82,34Z"/>
  <path class="cls-1" d="M958.81,323.62c-.53-4.33-6.54-4.48-6.68-8.86-2.76,1.12-6.14-5.13-8.61.88-1.15,2.8-1.76-1.45-3.18-.62-1.06.62-1.63,2.15-3.21,1.91,1.89-6,9.24-8.8,14.68-5.95,5.25,2.75,5.81,7.88,7.01,12.65Z"/>
  <path class="cls-1" d="M866.98,315.87c-1.41,2-2.82,4-4.24,5.99-1.28,1.8-3.12,2.9.02,5.45,2.43,1.97-1.93,3.96-2.11,6.52-2.63-1.65,1.08-5.35-1.93-5.52-2.5-.14-2.65,3.32-3.59,5.39-.52,1.14-.54,2.65-2.35,3.38-1.92-5.4,3.37-8.72,3.93-13.52.46-3.93,6.79-4.83,10.26-7.69Z"/>
  <path class="cls-1" d="M857.97,267.82c-.93,2.97-3.54,3.46-5.42,4.74-1.63,1.11-3.37,2-4.13,4.11-.46,1.28,2.72,3.71-.69,3.65-2.44-.04-5.19-.98-7.08-3.03-.63-.69-.64-2.01.24-2.01,6.6.03,9.98-6.77,17.08-7.46Z"/>
  <path class="cls-1" d="M914.24,292.08c1.31,2.32-.56,3.65-1.57,5.27-2.57,4.11-5.51,7.89-9.36,10.88-.71.55-1.6,1.39-2.61.37-.69-.69-.7-1.31.04-2.09,4.52-4.78,8.99-9.61,13.5-14.44Z"/>
  <path class="cls-1" d="M823.51,283.32c-4.55,1.32-7.91-2.19-11.93-2.45-4.77-.32-5.33,5.38-9.38,6.63,3.99-9.89,11.95-12.42,21.3-4.18Z"/>
  <path class="cls-1" d="M764.19,324.84c2.26-8.85,8.64-13.98,16.41-17.83-5.91,5.51-12.16,10.71-16.41,17.83Z"/>
  <path class="cls-1" d="M844.49,291.74c3.27-5.65,8.62-9.21,12.93-13.79.59-.63,1.72-1.5,2.62-.65,1.19,1.12.14,2.12-.66,2.95-4.41,4.51-10.25,7.18-14.89,11.49Z"/>
  <path class="cls-1" d="M816.02,412.02c-.04-6.26,8.02-16.53,13.66-17.89-5.11,5.5-8.77,11.49-13.66,17.89Z"/>
  <path class="cls-1" d="M987.46,374.14c2.79-6.27,9.52-9.3,12.2-15.67-.81,7.8-6.32,11.89-12.2,15.67Z"/>
  <path class="cls-1" d="M856.28,261.43c-4.33,5.67-10.18,7.3-13.85,11.54-.48.55-1.21.42-1.71-.18-.46-.55-.72-1.43-.14-1.79,4.8-3,8.5-7.89,15.7-9.58Z"/>
  <path class="cls-1" d="M931.93,350.62c2.25-1.63,3.7-.3,5.09.23,3.18,1.22,6.35,1.62,9.71,1.03.89-.16,2.22-.38,2.44.93.2,1.21-1.07,1.37-1.92,1.83-3.05,1.68-5.82,1.37-8.69-.58-1.96-1.33-4.21-2.21-6.62-3.44Z"/>
  <path class="cls-1" d="M981.56,371.7c2.31-6.31,9.03-9.74,10.27-16.77.63,8.11-5.67,11.92-10.27,16.77Z"/>
  <path class="cls-1" d="M790.13,293.34c-.12-8.3,5.97-11.84,12.07-15.4-4.72,4.56-9.6,9-12.07,15.4Z"/>
  <path class="cls-1" d="M820.58,416.2c-.38-5.12,3.13-9.62,11.35-14.95-3.46,5.21-8.84,8.98-11.35,14.95Z"/>
  <path class="cls-1" d="M967.44,363.41c3.48-4.28,6.95-8.58,7.76-14.47,3.6,3.7.15,10.23-7.76,14.47Z"/>
  <path class="cls-1" d="M933.94,381.11c-4.18,3.51-8.23,7.04-8.65,13.05-2.49-.27-2.69-1.95-2.16-3.56,1.71-5.23,5.89-7.8,10.82-9.49Z"/>
  <path class="cls-1" d="M773.65,331.92c-5.6,4.45-11.23,8.92-14.36,15.7,1.08-8.49,8.2-11.66,14.36-15.7Z"/>
  <path class="cls-1" d="M763.15,354.03c-.16-6.72,3.66-11.13,11.87-13.76-5.78,2.74-8.33,8.28-11.87,13.76Z"/>
  <path class="cls-1" d="M772.24,349.75c-3.48,4.01-6.72,8.11-9.9,12.29.7-6.24,5.05-9.51,9.9-12.29Z"/>
  <path class="cls-1" d="M934.85,330.48c-.13-4.84,3.6-5.41,6.3-6.81,2.22-1.15,4.13-.69,5.63,3.14-5.54-2.94-8.09,1.44-11.92,3.67Z"/>
  <path class="cls-1" d="M994.54,376.08c1.81-4.68,7.25-6.56,8.75-11.55.23,6.18-4.61,8.59-8.75,11.55Z"/>
  <path class="cls-1" d="M907.48,284.83c.73,6.25-3.84,9.7-7.27,13.76,2.42-4.59,4.84-9.17,7.27-13.76Z"/>
  <path class="cls-1" d="M1008.5,391.39c4.24-3.61,6.41-7.27,9.26-10.99.22,5.54-2.96,9.69-9.26,10.99Z"/>
  <path class="cls-1" d="M977.37,396.53c-3.33,3.62-6.7,7.1-8.57,12.12-1.39-4.88,1.68-9.2,8.57-12.12Z"/>
  <path class="cls-1" d="M826.65,423.92c1.28-5.86,3.81-9.07,8.44-10.63-2.97,2.86-3.79,7.39-8.44,10.63Z"/>
  <path class="cls-1" d="M932.09,343.6c4.2.89,8.77-.93,13.54,2.01-5.3,1.52-9.55.97-13.54-2.01Z"/>
  <path class="cls-1" d="M1010.64,374.64c1.33,5.98-1.54,9.96-7.78,10.86,3.39-3.05,7.12-5.85,7.78-10.86Z"/>
  <path class="cls-1" d="M917.25,387.49c.9-6.95,6.73-9.17,11.63-12.29-3.62,4.34-9.95,6.08-11.63,12.29Z"/>
  <path class="cls-1" d="M861.02,301.21c5.2-2.68,10.4-5.36,15.6-8.03.19.42.39.84.58,1.26-5.53,1.98-9.27,7.83-16.2,6.79,0,0,.02-.01.02-.01Z"/>
  <path class="cls-1" d="M899.07,380.19c.48-5.61,3.52-10.29,5.81-15.26-.98,5.42-2.39,10.68-5.81,15.26Z"/>
  <path class="cls-1" d="M832.11,408.04c-3.48,3.3-5.37,7.79-8.77,11.06-.09-6.04,4.94-8.15,8.77-11.06Z"/>
  <path class="cls-1" d="M875.88,333.88c-3.29.7-5.5,2.37-6.32,5.73-.25,1.01-1.31,1.98-2.72,1.11-1.59-.98-.48-1.93.06-2.87,1.98-3.44,4.9-4.86,8.98-3.97Z"/>
  <path class="cls-1" d="M749.4,358.37c-2.19,3.2-4.01,5.87-5.85,8.53-.43.63-.74,1.66-1.79,1.14-1.1-.55-1.09-1.66-.61-2.56,1.71-3.22,4.09-5.73,8.24-7.11Z"/>
  <path class="cls-1" d="M777.27,317.52c-5.41,2.3-7.56,7.5-10.86,12.72.12-6.44,4.66-11.55,10.86-12.72Z"/>
  <path class="cls-1" d="M917.23,299.09c-.05,5.89-4.16,9.28-7.6,13.07,1.17-5.2,6.83-7.63,7.6-13.07Z"/>
  <path class="cls-1" d="M984.22,399.27c-2.28,3.01-4.48,5.9-6.71,8.85-1.22-4.33.56-6.66,6.71-8.85Z"/>
  <path class="cls-1" d="M979.75,365.15c2.36-3.48,4.71-6.96,7.73-11.42-.24,6.12-4.25,8.59-6.6,12.05-.38-.21-.76-.42-1.13-.63Z"/>
  <path class="cls-1" d="M782.46,347.39c-3.06,3.02-4.3,7.37-8.48,11.08,1.22-6.04,4.44-8.93,8.48-11.08Z"/>
  <path class="cls-1" d="M788.32,280.86c-4.13,2.96-4.8,8.47-9.05,13.18,1.54-6.64,4.16-10.72,9.05-13.18Z"/>
  <path class="cls-1" d="M1007.16,371.93c-1.23,3.1-3.33,5.39-6.47,6.94q-.09-2.96,6.47-6.94Z"/>
  <path class="cls-1" d="M954.44,452.16c2.68,4.25,6.78,7.79,6.58,13.42-1.57-4.81-5.22-8.54-6.58-13.42Z"/>
  <path class="cls-1" d="M1034.53,387.82c-.56,3.38-1.41,5.95-2.98,8.26-.46.68-1.05,1.46-1.95,1.08-1.01-.43-.66-1.28-.23-2.03,1.36-2.35,1.79-5.3,5.16-7.31Z"/>
  <path class="cls-1" d="M940.96,417.75c-1.16,4.28-4.13,7.92-4.18,12.51-.97-4.87.85-8.95,4.18-12.51Z"/>
  <path class="cls-1" d="M956.19,494.96c1.49-1.8-.18-4.14,1.28-6.38,1.81,3.14,2.07,6.28,2.07,9.63-2.47-.1-1.89-2.7-3.4-3.36,0-.01.04.11.04.11Z"/>
  <path class="cls-1" d="M914.2,326.79c1.32-3.41,3.77-5.84,7.14-7.47-1.62,3.12-3.59,5.94-7.14,7.47Z"/>
  <path class="cls-1" d="M994.9,404.83c-1.14,2.24-1.95,4-2.92,5.67-.65,1.11-1.8,1.63-2.88.75-1.2-.96-.05-1.58.61-2.25,1.43-1.47,2.18-3.7,5.19-4.17Z"/>
  <path class="cls-1" d="M934.33,388.39c-1.5,3.29-4.28,5.76-5.7,9.11-.64-4.67,2.73-6.76,5.7-9.11Z"/>
  <path class="cls-1" d="M848.46,339.4c-.07,1.35-.96,2.02-1.96,1.69-1.59-.53-4.01.11-4.48-2.17-.22-1.08,1.32-1.26,2.29-1.26,1.61,0,3.34-.11,4.14,1.75Z"/>
  <path class="cls-1" d="M1049.96,401.15c-.54-3.48.05-5.98,2.84-7.7.68,4.18.61,4.37-2.84,7.7Z"/>
  <path class="cls-1" d="M1024.28,384.75c-.09,1.03.01,1.57-.19,1.94-.85,1.56-.97,3.61-2.7,4.54-.6.32-1.3-.37-1.23-1.11.21-2.38.81-4.55,4.12-5.37Z"/>
  <path class="cls-1" d="M988.92,402.62c-1.35,1.85-2.68,3.72-4.07,5.54-.13.17-.62.07-1.31.13-.18-3.59,2.05-5.11,5.38-5.66Z"/>
  <path class="cls-1" d="M839.82,178.51c-1.17,4.13-1.72,7.77,1.07,11.5-5.36-2.37-5.81-7.5-1.07-11.5Z"/>
  <path class="cls-1" d="M800.26,205.27c4.63-1.64,9.43-1.68,14.28-1.15-4.64,1.84-9.5,1.44-14.36,1.09-.01-.01.08.06.08.06Z"/>
  <path class="cls-1" d="M764.17,268.7c1.98-3.14,3.72-6.52,8.36-7.09-2.43,2.66-4.85,5.31-7.28,7.97-.36-.29-.72-.58-1.08-.87Z"/>
  <path class="cls-1" d="M862.62,136.65c-.17-4.67,4.32-4.99,6.79-7.19-2.96,1.72-2.46,6.8-6.94,7.05,0,0,.14.14.14.14Z"/>
</svg>