<?xml version="1.0" encoding="UTF-8"?>
<svg id="Laag_1" data-name="Laag 1" xmlns="http://www.w3.org/2000/svg" version="1.1" viewBox="0 0 1804.6 689.4">
  <defs>
    <style>
      .cls-1 {
        fill: #fff;
        stroke-width: 0px;
      }
    </style>
  </defs>
  <path class="cls-1" d="M872.6,663.6c-9.1-1-18.2-1.8-27.2-3-57.5-7.4-109.1-29.1-154.3-65.3-61.2-48.9-99.7-112-113.9-189.1-26.4-143.6,49-283.9,181.1-343.2,34.5-15.5,70.7-24.4,108.5-26.4,2-.1,3.9-.6,5.9-1h27c8.9,1,17.8,1.8,26.7,3,60,7.7,113.4,31,159.8,69.7,58.9,49.1,95.5,111.7,109,187.2,29.1,162-75.3,320.9-235.5,359.1-17.8,4.3-35.9,7.2-54.2,8.1-2,0-4,0-5.9,1h-27ZM885.6,658.5c169.8.3,308.8-138,309.3-307.8.5-170.6-137.8-309.6-308.6-310-169.8-.4-309,138.3-309.4,308.3-.4,170.1,138.4,309.2,308.7,309.5h0Z"/>
  <path class="cls-1" d="M1186.3,349.5c0,165.5-134.6,300.1-300.1,300.1-166.1,0-300.5-134.2-300.5-300.1,0-165.8,134.6-300,300.7-299.9,165.4.2,299.9,134.7,299.9,299.8ZM885.7,647.6c164.1,0,298-133.5,298.2-297.2.2-164.9-133.3-298.8-298-298.8-163.9,0-298.1,134-298.2,298,0,163.9,134.1,298.1,298,298.1h0Z"/>
  <path class="cls-1" d="M1065.9,523.7c.9,2.5,3.4,3,5.4,4,6.3,3.2,12.7,6.5,19,9.6,1.4.7,2.8,1.8,5,.9-2.5-2.8-6.6-3.2-9.1-6.6,5.4.8,8.5,4.7,12.9,6-2.5,4.1-5.7,5-9.6,2.8-10.5-6-21.1-11.9-31.5-18.2-10.2-6.2-19.4-13.7-28.9-20.9-16.5-12.6-31.1-27.3-46-41.7-4.8-4.6-9.3-9.6-12.8-15.3-1.8-3-5.2-4-7.7-6.2-.7-.6-2-.9-2.8-.2-1,.9-.7,2.3,0,3.2.9,1.3,2.1,2.5,3.3,3.7,6,5.9,4.4,13.8,6,21,2.6,11.9.9,23.5-2,35-1.4,5.6-7.3,8.3-12.5,5.9-1.6-.8-2.2-1.9-2-3.6.5-4.3-1.8-7-5.2-8.9-8.1-4.4-15.8-9-21.4-16.7-2.3-3.1-5.9-1.8-8.8-1.5-4.7.5-9.3.8-13.9-.1-15.1-3.2-30.1-6.6-45.2-9.7-7.6-1.5-14.8-2.2-21.4,4.1-5.3,5.1-13.5,4.3-20,7-7.7,3.2-15.1,6-20.1,14.2-4.9,8-13.2,13.7-21.5,20.6,16.3.3,31.8-.9,47.7.7-1.9,2.5-3.9,1.8-5.6,1.8-13.5,0-27,.3-40.5,0-5.6-.1-8.3,1.9-9.1,7.2-.5,3.6-1.2,7.2-2.1,10.8-.9,3.7.5,4.5,4,4.5,25.3-.4,50.6-.8,75.9-1,21.5-.1,43,0,64.4.1,1.5,0,3.3-.6,4.3,1.4-1.3,1.7-3.1,1-4.7,1-15.7.5-31.3.7-47,.6-29.6-.3-59.1,1.3-88.7.6-2,0-4,.3-6,.3-2.7,0-3.4,1.6-3.3,3.9,0,2.7,2,2.1,3.6,2.2,4.8.3,9.9-1.1,15.8,1.9-6.2,1.4-11.2,1.3-16.3,1-2.7-.2-3.9.8-3.4,3.3,2,12-.8,23.9,0,35.9.2,3.7,1.2,4.8,4.9,4.8,21.2-.2,42.3,0,63.5-.2,5,0,9.9-1.3,14.9,0,1.2.3,3.3-.3,3.3,1.4,0,2.2-2.3,1.4-3.6,1.4-19.3,0-38.6,0-58,0-6.3,0-12.7.3-19,0-4.7-.3-5.9,1.5-5.1,5.7.3,1.9,0,3.9-.9,6.3-1.5-3.2-3.8-6.2-4.3-9.5-.4-2.7-1.6-2.5-2.7-1.8-2.9,1.9-4.5-.4-6.8-1.4,1.9-2.9,6.1-.8,7.6-4,1.2-2.7,3.3-5,1.5-8.3-2.4.6-1.5,3.8-4,4.3.4-5.6,5.5-9.9,4.4-16-3,1.3-2.4,5-5.3,6.3,0-7.4,10.1-11.5,5.8-20.4-4.5,4.7-5.8,11.7-11.9,15,3.7-6.4,7.4-12.7,11.1-19.1.6-1,2.4-2.1.8-3.3-1.1-.8-2.4,0-3.8,1-6.8,4.5-10.2,11.9-15.5,17.7-3.8,4.2-3.4,4.5,1.5,9.5-8.1-3.8-10,1.6-12.7,5.7-2.2-3.1.8-4.6,2.1-6.5,1.2-1.8,1.7-2.9-.5-4.4-2.2-1.5-3.2-.6-4.3,1.3-.6,1.2-1.5,2.2-2,3.4-.7,1.5-2.7,3.1-1,4.8,1.5,1.5,3.4,2.7,5.8,1.3.2,1,1,2.8.6,3-1.1.8-2.7.9-3.8.1-5.4-3.8-11.3-7.2-15.9-11.9-3-3-1-8.5.4-11.9,1.9-4.6,2.4-9.3,3-13.9,1-8.2,4.9-15.1,9.7-21.4,2-2.6,3.2-5.7,5.8-8,1.7-1.5.8-3.5-1.8-3.5-7.5,0-15.1,0-22.6.2-2.3,0-2.2,1.2-1.5,3,1.2,2.7,2.1,5.5,2.7,8.5-2.5-3.7-3.3-8.3-5.9-11.9-.6-.8,0-1.9.9-2,6.8-1.1,2.5-4.7,1.7-7.4h-.1c.2.1.5,0,.5.1,6.2,12,17.2,5.4,26.1,6.3,2.7.3,4.3-4.1,5.5-7,.8-1.8.8-3.9,3.2-5.7-.5,3.4-.9,6.3-1.3,9.2-.2,1.3-2.3,2.8,0,3.6,1.8.6,4.1.8,5.4-1.3,1.6-2.7,2.6-5.7,3.2-8.9.4-1.9.7-4,3.1-5.5,1.1,3.7-.9,6.5-1.6,9.5-.5,2-3,4.8,0,6,3.1,1.3,4-2.3,5-4.4,1.7-3.6,2.1-8,6.5-9.8.2.3.5.5.6.7.7,1.9-2.8,4.4.4,5.7,3.2,1.3,3.4-2.4,4.6-4,2.7-3.6,3.7-8,5-13,2.6,3.4.9,5.8,0,8.3-.5,1.3-2,2.8,0,3.8,2.1,1,2.9-1,3.7-2.3,1.8-3,2.2-7,5.3-9.4,2.1,2.3-.7,4.6.5,6.9,3.3-.4,3.2-3.4,4.4-5.4,1.2-2,1-5.1,5-5.1,2.6,0,1.2-2.4,0-2.9-3.7-1.5-2.3-3.4-.8-5.5,0-.1.2-.3.3-.4,2.4-2.4,1.6-5.4,0-7.3-1.5-1.9-2.6,2.1-5.3,1.3,2.1-4.7,8.1-7.9,5.8-14.3-3.8,4.8-9.4,7.8-12.7,13.3-.8-3.9,1.6-5.8,3.8-7.9,2.4-2.4,4.7-4.7,5.2-8.3.1-1,.3-2.1-.7-2.7-1.1-.6-1.8.4-2.6,1-3,2.8-5.2,6.4-9.2,9,.5-3.7,2.5-5.7,4.4-7.7,1-1.1,2.1-2.1,3.1-3.3,1.1-1.2.9-2.8,0-3.7-1.4-1.5-2.2.4-3,1.2-3.2,2.9-5.4,6.8-10,8.4,2-2.2,4-4.6,6.1-6.7,1.5-1.6,2.7-3.3,1-5.2-2.1-2.3-3,.5-4.3,1.4-2.2,1.6-4,3.8-5.6,4.3,1.4-1.7,3.2-4.3,5.3-6.6,1.5-1.6.7-2.6-.1-3.9-1.3-2-2.3-.2-3.2.5-2.7,2-4.8,4.6-8.4,6.4,1.7-6.7,11.7-7.9,10.2-16.9-3.9,3.2-5.6,7.7-10.5,8.7-.2-3,6.1-4.2.7-8.1,2.5.4,3.3,2.5,5.2.6,3.7-3.6,5-6,3.8-10.6-2.5,6.1-9,6.6-13,12.3-.3-4.3,2.2-5,3.6-6.4,1.4-1.4,1.8-3.1.5-4.4-2-2-2.3.6-3,1.6-.7,1-1.5,1.6-2.5,1-1.3-.8,0-1.7.2-2.6.7-2.9,5.7-3.6,4-7.7-.4-1,.3-2.6-1-3.1-1.4-.5-2,.9-2.7,1.8-2.3,3-4.4,4.6-5.7-.7-.5-2.1-2.1-1.8-3.5-.7-1.9,1.6-3.8,3.2-5.9,5-1-2.6.7-3.6,2-4.7,1.5-1.2,3.2-2.4,4.7-3.7,1.1-1,1.3-2.5.5-3.6-1.1-1.4-2.1.1-2.9.8-2.8,2.3-6.6,3.4-8.8,6.7-.3-2.6,1.1-3.8,2.7-5,1.4-1,2.8-1.9,4.1-2.9,1.4-1.1,1.7-2.4.7-3.9-1.4-2.1-2.6-.4-3.7.4-2.5,1.8-4.2,4.8-8.5,5.3,2.3-5.1,8.2-6.4,10.3-11.1-2.2-.8-3,2-5.1.9-.5-2.1,3.7-6.1-2.1-6.7,0,0-.2-.9,0-1.4.3-1.4,2.7-2.3,1.5-3.9-1.7-2.1-2.1,1.2-3.5,1.2-1.1,0-4.1-4.4-3.6-5.4.5-1.2,1.7-2.1,1.3-3.9-1.8.8-3,3.5-4.8,2.6-1.1-.6-1.5-3-1.9-4.6-.4-1.4-.5-3-.4-4.4.3-3.5-.8-6-4.1-7.8-4.5-2.5-4.9-6.1-1.2-10.2,3.1-3.5,6.4-6.8,9.5-10.3,1.9-2.1,2.5-4.2-.5-6.1-2.6-1.7-2.2-4-.2-5.9,10.7-10.3,17.4-23.5,26-35.4,2.5-3.5,4.1-7.5,4.5-11.9-2-.4-2.3,2.1-4,2-1.1-1.8.7-2.6,1.4-3.7,1.3-1.8,1.6-3.3-.3-4.7-1.8-1.3-3.4-.9-4.8.7-1.6,1.9-3.4,3.7-4.9,5.6-2.6,3.3,2.3,3.3,2.5,5.5-2.5.7-4-2.8-6.3-1.7-1.8.9-3.1,2.7-5.2,4.6,1.8-4.3,1.8-7.2,0-8.6.8-1.1,1.9-.5,2.6-.2,3,1.5,5.2.8,6.4-2.3.9-2.2,5.4-3.5,3.5-5.5-2.1-2.1-3.1,3.1-5.9,3.2-1.1-2.5,2.3-3.4,1.9-6.4-8.2,2.6-12.2,10.3-18.8,14.5,1.7-3.8,5.2-6,7.9-8.9,1.6-1.7,3.5-3.1,5.1-4.8.8-.8,2.9-1.4,1.3-3-1.2-1.3-2.4,0-3.4.8-1.2.9-1.9,2.8-5,2.3,4.2-4.3,7.9-8,12.5-11.5.4,2.3-1,2.8-1.8,3.7-1,1.1-2.6,2.2-.6,3.6,1.7,1.3,3-.3,3.6-1.5,1-2.1,2.3-3.8,5.7-5.3-5-1.1-7.5-5.2-12.4-.3-4.3,4.3-9.8,7.6-14.4,12.1-1.5-2.3.4-3,1.1-4.1,2.4-3.5,8.9-3.7,8.2-9.8.5,0,.9-.1,1.4-.1,1.7.2,3.6-.5,3-2.1-.7-1.8-2.6-3.7-5.1-2.4-1.6.8-2.6,1.9-2.5-1.1,0-2-1.5-1.2-2.5-1.1-3.3.2-5.8,2.1-8.3,4.1-2.3,1.8-4.1,4.3-7.9,5.3,2.1-3.9,6.7-4.4,8.3-8.8-4.1.5-7.8-.3-10.9,2.5-.9.8-2.2,2.3-2.4-.6-.1-1.8-1.6-1.2-2.7-1.4-8.9-1.2-17.8-1.9-26.8-1.6-3,0-5.4-1.4-8.1-1.9-9.9-1.9-19.5-5.1-29.2-7.6-3.8-1-7.5-2.2-10.3-5.5,7.8,2.2,15.5,4.5,23.3,6.4,24.6,6.2,49.3,10.9,74.8,5.6,7.9-1.6,14.8-5.9,22.6-7.8,1.8-.4,2-1.7,1.8-3-1-7.2,3.5-12.6,7.3-17.5,7.2-9.2,14.5-19.1,26.2-23,8.1-2.7,13.9-8,19.2-14.2.7-.9,1.7-1.7,2.7-2.2,7.3-3.7,13.7-8.2,18.6-15.1,2.4-3.4,2.9-5.6-1-7-4.7-1.7-4-3.6-.9-6,5.3-4.3,7.6-9.8,8.7-16.7,2-12.8,10.8-20.9,22.3-26,3.9-1.7,8.8-1,12.1,1.3,5.9,4.2,12.4,6.2,19,8.5,9.5,3.3,13.8,11.5,11.1,21-.8,2.8-.8,6.6-6,5.9-3-.4-4.6,6.4-2,9,3.4,3.3,3.5,5.4-1.4,6.9-2,.6-2.7,2.8-3.9,4.4-2.7,3.8-5.3,7.7-10.5,8.5-1.7.2-2.1,1.3-1.5,2.9,1.1,3.6,2.7,7.1,6.3,8.6,5,2.1,8.5,5.8,11.7,9.9,1.6,2.1,3.3,2.9,5.9,2.8,13.2-.6,26.4-1.2,39.6-.2,1.3.1,3.7-.9,3.7,1.1,0,2.4-2.5,1.5-3.9,1.6-9.4.5-18.9-.5-28.3,1.1-2.4.4-4.7-2-6.7-1,11.2,9.8,22.7,19.7,34.1,29.7,7.5,6.6,14.9,13.1,25.7,13.9,4.2.3,8,3,9.3,7.3,1.4,4.4,4.7,7.6,6.5,11.7,1.2,2.6,2.8,1,3.9,0,2.4-2.1,4.2-4.7,7.1-6.3,1.7-.9,3.4-1.5,5.2-.3,1.9,1.2,2,2.9,1.7,4.8-.2,1.8-.3,3.7-.7,5.4-2.4,10,.3,15.7,9.4,19.6,11.7,4.9,23.7,5.1,35.9,1.9,2.8-.7,5.5-1.1,8.4-.9,6.1.4,12.2,1.4,18.4.3,5-.9,9.8,1.5,14.7,2.5,7.8,1.6,16.2,2.1,23.2,6.7.7.5,1.6.6,2.2,1.1,7.9,7.1,17.3,12.7,22.8,22,4.2,7.1,7.9,14.8,7.4,23.5-.1,2.4.4,4.7,1.3,6.8,1.6,3.8,2.3,7.6.5,11.6-.4.9-.6,2-.4,2.9,2.1,12-3.2,22.6-8.4,32-7,12.6-15.4,25.2-28.6,32.7-8.8,5-18,9.1-28.1,10.9-4.1.7-8.1,1.8-12.1,3.1-11.4,3.8-23,4-34.7,1.4-2-.4-3.9-.8-6.3-.2,29.8,30.3,63.2,55.1,102.5,72.7-2.7,1.7-3.8.5-4.9,0-19.3-10.5-39-20-56.6-33.4-12.1-9.1-24-18.4-34.6-29.2-2.1-2.1-4.5-4-6.8-5.9-1.9-1.6-4-1-5.3.5-1.3,1.5.4,2.7,1.4,3.7,17.2,16.8,33.8,34.1,53.8,47.9,8.9,6.2,18.5,11.2,27.8,16.5,5.5,3.2,11.4,6.7,18.5,6.3-.7,3.4-3.7,4.7-9,4.1.2,2.3,3.4,1.8,4,4.7-9.6-5.8-19.2-10.4-27.8-16.7-3.6-2.7-7.6-4.6-10.8-7.9-2.5-2.6-3.1-6.5-6.7-8.2-2-1-3.6-2.8-6.5-3.5,1.4,4.4,5.8,4.8,7.4,8-5.8-2.4-10.9-6-15.3-10.2-5.5-5.3-11.5-10-17-15.3-5.3-5.1-10.8-9.9-14.7-16.2-3.4-5.5-8.9-9-13.6-13-3-2.6-8.5-1.3-12.6-.4-2.5.6-.3,2.4.4,3.4,3.2,4.7,8.6,7.3,11.6,12.3.7,1.1,1.8,2,2,4.9-8.4-5.7-14.5-12.7-21.4-18.7.7,3,3.3,6.1,8.1,11,19.1,19.3,39.3,37.3,61.5,53,5.1,3.6,10.1,7.5,15.9,10h-.2c0-.1,0-.3,0-.3ZM862.6,136.6h-.1c-.6,2.8-6.5,2.8-4,8.4,2.4-5,8.7-3.4,10.8-9.1.8,3-3.5,6.2,1.6,7.3.7.2-.8,1.5-1.4,2.1-1.8,1.8-2.7,3.6-1,6.4,4-3.8,4.2-9.6,8.2-13.5.1,3.1-2.2,5.3-1.7,8.3,5.8-3,4.2-9.8,7.7-14.6,1.1,2.9-1.3,5.7,1.2,7.6,3.3-2.2,1.5-6,2.4-9.3,2.1,2.2.4,5.5,3,7.5,1.4-2.8.8-5.2.5-7.6-.3-3-.8-5.3-4.8-3.9-1,.4-2.2.2-3.1-1-.7-1.1,2.2-1.9.1-2.7-1.3-.5-1.9,1-2.9,1.5-1,.5-2.1.9-3-.2.2-1.9,3.1-1.2,3.2-3.3-2.1-.8-3.9-.2-5.6.9-3.8,2.4-9.4,1.2-11.6-2.3-.7-1.1,0-1.8.8-2.4.7-.6,2.3-.6,1.8-2.6-2.9.8-5.4,1.9-7.2,4-.7.9-1.4,1.6-2.3.7-1-1-.7-2.1.3-3,1.4-1.3,3.7-1.2,5.2-3.3-3.5-.9-5.4,2.6-8.4,2.1.1,7-11.3,9.9-6.1,18.7,4.6-1.8,3.2-9.5,9-10.8-5.1,6-6.5,10.5-5,15.8,1.8-4.1,3.5-8.1,6.9-11,1.1-1,2.5-2.5,3.9-1.3,2.1,1.8-.8,2.4-1.5,3.2-1.9,2.3-.3,4.7-.7,7-.1.9,2.3.2,3.6.4h0ZM800.3,205.3h0c-3.6,2.2-2.8,3.5.8,4.6,1.2.4,2.6.8,3.4,3.3-4.5-2.2-8.5-4-12.3-6.1-8.5-4.8-20.1-3.1-25.8,3.8-2,2.5-2.6,4.1.5,6.4,3.2,2.3,6,5.3,7.6,9.6-4.9-.6-6.4-4.7-9.5-6.9-1.6-1.1-3-3.4-5.5-1.2-5.7,5-10.1,19.9-7.2,26.9,2.8,6.9,4.1,14.2,7.2,21,2.5,5.4,3.5,6.2,8.7,3.2.7-.4,1.2-1.1,1.9-1.6,1.2-.8,2.9-2.2,3.9-.5,1,1.7-1.1,2.8-2.3,3.1-6.4,1.6-9.9,6.6-13.4,11.4-2.6,3.6-4.3,7.9-6.7,11.7-6.9,11.1-14.3,22-22.7,32.2-2.3,2.9-2.1,5,1.4,6.6,2,.9,4.2,1.5,5.5,3.3,3.1,4.2,5.3,1.9,7.2-1,2.3-3.5,4-7.2,6.1-10.9,5-8.8,9.9-17.5,13.3-27.2,3.2-9,7-18,17.5-21.7,5.5-1.9,10.6-4.8,15.9-7.3,1.3-.6,3-.8,2.6-3-1.3-6.1-3.6-11.7-7.1-16.8-1.3-1.8-3.2-1.4-5-1.6-3.3-.3-6.9.7-10.2-1.5,3.2-3,7.3-.4,10.5-1.9-.7-5.9-8-6.9-9.3-13,3.3,1.8,5.5,4.4,8.7,5.3,3.3,1,6.1,2.7,8.1,5.6,3,4.2,6,4,10.2,1.2,7.8-5.2,16.7-8.5,24.7-13.5,4.8-3,11.9-12.9,12-18.7.1-3.9-1.2-7.8.3-11.7,4.6,2.1,5.2,8.8,11.7,9.3-1.4-3.9-5-6.2-4.5-11.3,3,5,5.2,9.4,9.7,12,.5-2.9-2.9-4.5-1.7-7.3,2.3,1.7,3.2,4.3,4.9,6.3,1.6,1.8,2.8,4.4,6,4.9-.3-3.4-3.5-5.1-2.9-9,2.6,5,5.6,8.5,10.1,11.8-.4-4-3.8-5.6-3.3-8.9,2.9,1.4,3.3,5,6.1,6.1,1.2-.6-.2-2.3,1.2-2.8,4.3,3.9,5,11.7,13.1,10.9-.4-1.2-.7-2.4-1.1-3.6.2,0,.5-.1.7-.2,1.6,2.3,3.3,4.5,4.7,6.5,1.8-.8-.3-2.1,1.5-2.7,1,2,2.1,4.1,3.2,6.1.6,1,2,2.6,2.5,1.9,3-3.9,2.8.6,3.8,1.4,1.3,1.1,1.8,3.1,3.7,3.9,1.3-1.5-1.2-2.8.2-4.5,2.5,3.9,4.9,7.8,7.8,12.3.5-2.9-1.7-4.5-.3-7.1,1.5,2.3,2.9,4.3,4,6.4,2.6,5.1,5.7,9.3,12.3,9.3,3.7,0,5.2-2.5,7-4.8,1.4-1.7.7-3.3-.8-4.3-5.3-3.2-9.5-7.7-14.1-11.8-8.3-7.4-16.9-14.4-25.2-21.8-1.8-1.6-3.4-2.7-5.9-3.1-4.3-.5-8.7-1.4-12.8-3.8,2.5-1.4,4.3,1.4,6.9.1-5.1-4-8.2-10.3-14-12.8-6.5-2.7-9.3-7.7-12.8-13.1-3.1-4.7-6.6-10.8-14.4-7.2-.5.2-1.3-.2-1.9-.2-10.5-1.1-21-2.6-28.4,7.6-.5.6-1.3,1.2-2.1,1.3-10,1.3-14.1,9.5-20,16.2,3.4,2.1,7.3-1.4,10.1,2-8.5,3.5-19.1-3.3-26.7,6.3,7.7.8,14.4,3.6,21.4,4.7h0ZM1042.5,430.5c3.1,1.7,5.7,2.6,5.3-2.6,0-.8,0-1.8,1-2,1.5-.4,1.3.9,1.6,1.8.8,2.7,3.3,4.1,5.6,4.1,2.4,0,1.3-2.9,1.7-4.5.3-1.2.6-2.5,2-2.4,1.5,0,.6,1.6.9,2.4.8,2.1,2.8,3.2,4.6,3.2,1.8,0,1.4-2.3,1.7-3.7.2-1.3.3-2.7,2.1-2.9,1,2-.2,3.9-.4,5.8-.2,1.8.8,2.3,2.2,2.6,1.1.2,2.4.8,3.2-.5,1.2-1.9-.9-2.1-1.7-2.9-.5-.4-1.2-.6-1.1-2,5.4,4.1,4.4-2.4,6.5-4.1,1.6,1.9.7,3.7.7,5.4,0,2.2,1.7,2.2,3.2,2.3,1.1,0,2.6-.5,2.2-1.4-2.1-4.4,4.6-5.4,2.9-10.1,1.5,6,5.7,3,8.2,3.1,2,0,.8-3,.9-4.7.2-2.1-.2-4.4,3.2-2,2.5,1.8,5,0,4.7-3-.2-2.2-1-4.4-1.5-6.7,2.7.1,2.4,2.9,4.4,3.7,1.2-3.4,9.6-4.1,2.7-10.3,2.1.3,2.8,1.1,3.5,2.1,1.8,2.8,3.2.6,3.1-.8-.2-3.1,1.4-3.6,3.8-4.4s3.2-3.4,3.4-5.7c.2-2.5-2.5-2.1-3.9-3-.7-.5-2,0-2.2-1.4,1.6-1.1,3.2-1.6,4.7-.3,2.2,2,3.6.6,4-1.3,1.1-4.9,3.5-9.4,5.1-14.1,0-.1-.3-.5-.5-.7-5.8,3.7-6.7,3.9-10.6,1.8,8.9-1.7,10.3-3.2,10.4-11.2-3.7,0-6.9,4.3-11.9.6,4.8-.8,8-3,10.5-6.1.9-1.1,3.1-1.6,1.9-3.4-1.1-1.7-2.3.2-3.4.5-1.4.4-2.8,1.1-4.2,1.5-2.5.8-5.7-.8-7.7,1-2.3,2,1.4,4.9-.6,8.2-2.3-5.6-3-10.7-1.8-16.2.6,5,3.3,6.2,7.7,5.5,5.3-.9,8.4-4.5,8.2-9.8-2.5.2-3.7,3.3-7.5,2.7,3.2-1.4,5.1-3.1,7-5,1.3-1.3,2.1-2.7,1.1-4.4-.9-1.5-2.3-1.7-3.9-1.3-1.7.4-3.5,1.3-5.2-.6,2.8-2,6.3-3.4,5-7.9-1.5-5.1-4.4-2.1-7-1.4-.7.2-1.3-.1-1.6-.8-.3-.8.3-1.1.9-1.5,1.2-.7,3.1-.8,3.3-2.6.4-3.4-6.3-8.6-9.7-7.8-1.2.3-2.3,1.5-3.7.6-.8-2.1,3.6-1.8,2-4.3-1.5-2.4-4-.5-6.1-1.3-.2-1.3,2.6-2,.3-4.2-5.3-4.8-12.1-6.2-18.4-8.3-1.9-.6-4.6-.9-7-1.4-6.6-1.2-12.8-2.6-20.1-.5-6.3,1.9-14,2.8-22.1-.2,6.1-.3,11.1.8,16.9-1.3-6.7-1.5-12.4-2.4-18.4-.9-12.7,3.3-25.3,3-37.6-2.2-10.1-4.3-13.9-11.8-11.5-22.5.4-1.6,1.2-3.9-.2-4.7-1.8-1.1-3.2,1-4.6,2.2-.7.6-1.3,1.5-1.9,2.3-3.4,4.1-6.7,4-9.9-.4-1-1.4-2.1-4-4-2.6-2.1,1.5-1.5,4.1,0,6.3.8,1.2,2.8,1.3,2.8,3.3-1.2.5-3.2-.7-3.1,2,.2,4.4,4.8,0,5.5,3-2.7,1.8-3.9,3.9-.2,5.6,1.9.9,1.6,2.1,1.8,3.5.8,8.4,1.3,8.8,9.7,7.9-.5,1.3-2,.9-2.8,1.6-1.5,1.4-.7,3.7.4,3.4,4.3-1.5,3.2,2.4,4.3,3.9.3.5.3,1.4,1,1.4.9,0,1.4-.6,1.7-1.5.3-1-.7-2.2.5-3.1.3.4.6.6.7.9.6,1.5,5.2,1.3,2.1,4.8-.4.5,1.1,4,3.1,3.7,2.2-.3,1.4-2.5.8-4.1-.2-.8-.2-1.6-.3-2.5,2.3.4,1,4.5,4,3.6,2.6-.7-.2-3.4,1.4-4.7,2.5,1.9,1.4,3.9,0,5.6-1.3,1.5-1,2.8.3,3.8,1.7,1.3,1.7-.8,2.5-1.3,2.2-1.3,3.7-3.2,6-5.6,0,4-.4,7.8,3.6,8.7,4.1.9,2.4-4,4.5-5.2,4.5,5.3,5.5-1.3,8-2.7,1.6,3.4,3.7,7.1,6.9,7.2,2.9,0,1.2-4.2,2-6.3.4-.9,0-2.7,1.7-2.4,1.3.2,1.7,1.4,1.7,2.7,0,.7,0,1.3,0,2,0,1.3.4,2.2,1.8,2.5,1.7.4,2.3-.5,2.9-1.9.8-1.9.9-4.2,3.1-5.9v4.6c0,1.2-.7,2.8,1.2,3.3,1.8.4,2.4-.9,2.8-2.2.8-2.4,2.5-3.3,4.8-3,.6,2-2.6,4.4-.5,5.4,2.4,1.2,2.2-3.2,4.4-3.8,1.6,1.3-2,3.7,1,4.5,3.1.8,5.5-.4,6.8-3.5,1.3,1.6-1.9,3.4.9,4.9,4.7,2.4,4.6-3.2,7.2-4.5.6,2.5-3.2,4.2-.6,6.2,2.7,2,3-2.2,5.3-2.4.5,4.7,2.8,4.6,5.8,1.2.1,2.7-1.8,3.7-2.5,5.4-.4,1-.9,2-.1,2.8.9.8,1.9,0,2.6-.5,1.9-1.4,3.8-3,5.6-4.5-.8,3.7-3.6,5.4-6.5,7-1.2.6-1.7,1.7-1,2.9.8,1.3,1.8.2,2.5-.1,2.8-1.4,5.5-2.9,8.3-4.3.1,1.3-.2,1.8-.6,2.3-.8,1.1-3.2,1.4-2,3.4,1,1.6,2.8,1.4,4.5,1,1.3-.2,2.4-2,3.9-.9.6,2.7-5.6,2.4-2.4,5.7,1.4,1.5,1.5,2.7,2,4.4.7,2.5,1.8,5.4,4.7,6.6.9.4,1.4,2,2.9,1,1.2-.9.8-2.1.6-3.2-.6-2.4-1.3-4.7-2.1-7.5,9.7,9.2,3.1,50.5-8.7,55.6,3.3-4.6,5.1-9.6,7.4-14.4.8-1.7.7-2.8-1.3-3.2-1.6-.4-3.4-2.2-4.8.3-1,1.7-2,3.6.4,5.2.8.5,1.7,1.2.9,2.4-.2.3-1.1.6-1.2.5-3.1-3.4-5.5.7-8.2,1.1-.6-2,2.6-2.2,1.7-4.1-2-.5-3.4,1.5-5.4.9-1.8-.5-4.5-.7-4.9,1-.7,2.9,2.8,1.9,4.2,3,.2.2.4.5.9,1.2-5.4-1.2-4.6,1.3-3.2,4.3.6,1.3,1.3,2.7,0,5-3.2-5.5-3.4-13.6-12.5-13.4,5.9,12.5,3.3,24.7-.4,36.1-.1-1.8-1.1-4.6-.3-6.5,3.1-6.8.6-13.6.6-20.4,0-4.7-3.2-6.2-7.4-8.6,1.8,8.7.3,16.3-1.3,23.9-.2,1,.4,2.8-1.4,2.5-2.2-.4-.6-1.7-.3-2.6,2.4-7.4,1.3-14.6-1-21.8-.4-1.3-1-2.6-2.7-2.5-2,.2-1.3,1.9-1.5,3.1-.2,1.2.4,2.8-1.7,3.3-.3-3.7-.6-7.4-2.1-10.8,1.8-.8,3.2,0,4.7.9,3.4,1.9,6.8,2.1,10.8.7,3.9-1.4,5.5-5.9,10-6,5.7-.1,8.1-4,10.1-8.7,1.8-4.4,1-9.1,2-13.3,1-4.3.8-6.9-.9-11-3.9-8.9-11.7-12.3-19.1-16.1-8.6-4.4-18.5-3-27.7-3.8-14.6-1.3-29.3,2.1-43.8-2.3-.3,1.9.8,2.6,1.5,3.4,6.6,6.8,11.6,14.5,14.1,23.8,2.4,8.7,7.5,16,13.5,22.5,3.2,3.4,6.7,8.2,12.2,7.4,4.1-.6,7.2.2,8.8,3.6,1.7,3.6.7,7.3-2.6,10.2-1.3-2.5.8-4.5.5-6.6-.3-2.8-1.6-5.5-4.5-5.6-3.2-.1-1.7,2.9-1.9,4.6-.3,3-.5,6.2-4.4,7.8,0-1.1,0-1.8.2-2.4,2.1-7.7,1.3-10-5.4-14-3.5-2.1-6.2-5-8.9-7.9-4.7-4.9-6.5-11.5-9.8-17.1-2.5-4.3-7.5-7.1-8.1-12.6,0,0-.6-.1-.8-.1-1.4.9.5,3-.5,3.4-4.8-1.1-4.8-7.6-10.2-6.8-.5-3.8-4.7-5.5-5.4-9-1-4.5-5.6-6.9-6.7-11.3,0-.3-.7-.5-1.1-.7-2.1,4-2.2-.4-3.2-.8-3.9-1.7-3.1-6.9-6.7-8.9-4.8-2.6-8.9-6.7-14.3-7.9-9.2-2-15.2-7.4-21.1-14.6-6.8-8.3-17-13.2-25.5-19.6-4.8-3.6-10-8.1-16.5-8.6-8.8-.7-15.5-6-22.4-10.3-10.9-6.9-21.7-11.8-34.9-6.2-3,1.3-3.1,1.9-1.1,3.9-.7.2-1,.4-1.3.4-1.4-.2-2.7-2.4-4.3-.2-1.3,1.7-.2,2.3.7,3.9,1.1,2,2.3,5.4-.9,7.7-.9.6-2.4,1.9-1.2,3.8,3.2-1,4.9-5.1,9.1-4.5-1.2,2.6-4,3-5.2,4.9-.8,1.3-1,2.9.4,4,.7.6,1.5,1,2.3-.4,3.7-6.2,10.7-8.3,16.1-12.4.5-.4,1.3-.4,1.7,1-3,2.3-6.2,4.6-9.3,7-.8.7-3.1,1.3-1.6,2.8.9.9,1.5,3.4,3.8,2.2.9-.5,1.8-.8,3,.2-1.2,2.3-2.8,4.5-4.3,6.4-1.4,1.9-4.7,2.7-6.7,4.6-.8.8-2.6,1.7-1.4,3.2,1.2,1.3,2.6.7,3.9-.4,3.3-2.7,6.7-5.5,10.2-7.9,2.6-1.7,5.2-3.9,9.7-4.7-5,5-11,6.8-14.4,11.7-.8,1.2-2.8,2.2-2.2,3.7,2,4.7-1.9,3.2-3.5,3.2-3.2,0-5.7-2.5-8.6-3.6-6.8-2.7-13.4-7.5-21.2-4-6.2,2.8-13,4.3-19,7.3-4.4,2.2-9.4,4.5-12,9.2-7.5,13.5-13.6,27.7-19.5,42-.9,2.3-1.8,4.5-2.8,7.2,3.9-1.4,5.7-4.7,8.7-7.1-.2,3.5-2.4,4.9-4,6.7-5.5,5.8-13.2,9-18,15.6-1.8,2.5-5.1,4-5.8,7.3-.8,3.9,3.5,4.5,4.8,7.2,2.8-3.1,4.7-7.3,10.2-8.5-4,3.7-6.7,7.4-9.1,11.2-1.1,1.7-1.5,2.9.8,4.4,9.6,6.2,19.2,12.2,31.1,13,2.3.2,4.7.8,6.4,2.4,7.7,7.2,16.7,12.6,25,18.8,2.4,1.8,6,2.1,7.3,4.9,2.9,6.4,8.4,11,11,17.5,1.3,3.3,4.8,3.9,6.9,2.6,8.8-5.6,15.7-13.2,19.7-22.9,3.1-7.4.8-15.4.2-22.8-.5-5.8.8-11.1,1-16.6.2-8.5,3.8-15.7,9.1-22.1,2-2.4,4.4-4.1,7.8-4.9-.4,2.7-2,4-3,5.8-.7,1.2-2.2,2.4-.4,3.9,1.6,1.4,3,1,4.2-.5,1.1-1.4,2.1-2.9,4.8-2.9-2.5,4.6-4.4,8.9-8.2,12-.9.7-2.4,1-1.2,2.5.7.9,1.8,1.5,3.1.6,1-.7,2-1.3,2.9-2-4.8,6.9,3.1,6.4,5.1,9.1-6,2.9-8.3,8.6-4,13.4-.4-8,6-9.9,9.5-14.3-.8,2.1-2.1,3.8-3.2,5.7-.9,1.4-2,3.1.2,4.2,2.2,1.2,2.2-1.3,2.9-2.3,2.2-3.5,3-7.9,7.5-10.1,0,2.7-1.6,4.1-2.7,5.7-1.7,2.4-1.3,3.9,1.4,5.4,3.2,1.8,3.3-.8,4.2-2.3,1.8-3.1,2.8-6.8,6.8-9.9-1.5,2.9-2.6,4.6-3.4,6.4-.7,1.4-1.9,3,.4,4.2,2.2,1.1,3.3-.1,4.4-1.8,1.2-2,1.6-4.5,4.7-6.8-3.3,7-6,12.9-8.8,18.9-1.7-1.1.2-4-2.7-3.8-1.1,0-1.9.4-2,1.7-.3,4.1-4,6.7-4.4,11-1.5-2.7-3.4-4-6.1-3.9-3.5.1-1.3,5-4.8,5.8.3-2,.5-3.8.8-5.5.3-1.6-.6-2.7-1.9-3.1-1.7-.5-3.6,1.5-3.4,1.9,2,4.6-5.6,8.2-1.2,13,.7.8-.7,3.2,1.5,3.6,2.9.5-.5-3.3,2.2-3.2,1.2,1.8,3.2,3,5.2,1.3,4.1-3.4,3,.8,4,2.2-2.2,1.2-5.5-2.4-6,1.4-.4,3.4,3,2,5.5,2-4.3,2.5-4.4,2.6-6.8-.3-2.4-3-5.6-1.2-8.4-1.6-.9-.1-2.4,2.1-1.8,3.6,1.1,2.6,3.5,0,5.5,1.1-1.6,2.3-3.4,4.3-.8,7.3,3.2,3.7,4.2-2.2,6.7-1,.6,1.4-2,1.8-1,3.7,10.5.4,18.8-5.2,27.1-11-1.2,3-3.7,4.6-6,6.3-7.6,5.8-17.5,4.5-25.8,8.2-1.7.8-3.3-1.3-4.9-2.1-1.7-.9-2.7-.6-3.7,1-1.3,2.2.5,2.6,1.8,3.1.9.4,2,.8,2.8.7,1.5-.2,2.3.2,2.7,1.5.5,1.9-.9,1.7-2.1,1.8-1.1,0-1.9.5-2,1.8-.2,3-3.1,4.6-3.8,7.5-.3,1.4-3.4,3-1.1,4.1,1.6.8,4.7,3.8,6.9,0,.5-.9,1.2-1.6,1.8-2.4,2.7-3.6,5.3-7.1,6.3-11.7.3-1.3,2.3-4.7,3.5-2.4,1.3,2.4,2,1.5,3.1,1,7.8-3.2,15.7-6.4,21.2-13.4.9-1.1,1.9-2.5,4-1.3-6.7,8.5-15.4,13.5-25.6,16.5-1.7.5-4.1,0-4.8,2.1-2.3,6.9-8,11.6-11.2,17.8-.8,1.5-.2,2.7,1,3.5,1.4,1,2.7-.8,2.6-1.4-1-3.9,2.8-4,4.3-5.9,3.4-4.1,5.6-9,8.5-13.4-.3,4.9-2.8,8.8-5.4,12.6-1.2,1.8-2.5,3.5-3.5,5.4-1,1.9.4,3.2,1.4,4.4.9,1.1,2.4.1,2.4-.5-.2-3.1,2.9-2.9,4.2-4.6.7-.9,2.3-2.2,1.4-2.8-2.6-1.6-1.2-1.9.4-2.6,3.8-1.7,4.5-5.6,5.5-9,.3-1-.2-2.1,1.2-2.6,6.2-2.2,11-6.1,15-11.2,1-1.2,2.1-2.6,4.7-2.4-3.6,5.8-7.9,10.3-13.9,12.5-4.1,1.5-5.4,4.2-6.2,8.7,5.8-2.2,10.8-4.9,14.9-8.7,3.8-3.6,6.2-8.5,10.6-11.5-5.1,8.9-11.6,16.4-21.5,20-5.8,2.1-8.2,7-11.1,11.5-1.1,1.7-1.8,4.9.1,5.8,2,1,2.9-1.8,4-3.5,2.7-4.2,6.2-9.6,10.2-10.3,5.6-.9,7.7-4.9,11.4-7.4,1.8-1.3,2.9-4.1,6.2-3.5-3.5,5-7.1,9.4-12.3,12-5.6,2.8-9.5,7.1-12.3,12.6-.7,1.4-2.3,2.7-.5,4.4,2.2,2,2.8-.6,3.9-1.4,5.1-3.8,9.3-8.6,14-14.8,0,3.6-1.2,5.1-2.4,6.3-2.8,2.8-4.5,6.5-7.2,9.5-.9,1-2,2-.7,3.5,1.3,1.5,2.6.8,4-.1,3.3-2,8.5-3.1,3.4-9.1,1.8,2.5,4.9,3,5.3,5.9-3.8.1-2.4,6.5-7.1,5.7-1-.2-2,.7-2.1,1.8,0,.8,1,1.2,1.9,1.4,1.3.2,2.8.6,3.9-.2,3.9-2.9,8.9-4.4,11.2-9.4.6-1.2,1.7-2.8,4.1-2.4-.6,3.1-2.5,5.2-3.9,7.5-.5.9-1.4,1.8-.5,2.6,1.2,1.2,2.1,0,2.9-.8,2.5-2.1,4.1-5.5,7.3-7.1.8,2-.4,2.8-1.1,3.9-.6.9-2.1,1.8-1.1,2.9,1,1.2,2.5.4,3.7-.2,1.2-.6,2.2-1.5,3.3-2.2.3-.2.9-.2,1.2-.2.9,1.7-1.6,2.1-1.1,3.5,5,2.3,4.2-2.9,5.8-5.1,1.9,2.2-1,5.6,2.1,6.8,2.6,1,3-1.7,4.2-3.3,1.2,3.3-1.8,7.3,2.5,9.6.8.4.2,1.3-.3,1.6-.8.7-1.6,1.3-.5,2.3.3.3.9.3,1.4.3,1.3-.1,1.5-1.1,1.5-2.2,0-2.2,0-4.4,0-6.6,1.8,5.1.9,10.5,3.4,16.6,1.3-5.1-.3-9,1.2-13.6.6,4.1-.2,7.6,1.7,10.7,1.4-1.9-.2-4.5,2-6.2.9,5.1-.7,10.5,3.1,14.6h0c.3,1.5.5,3.1,1,4.7.4,1.3-1.4,3.5,1,3.7,2.1.2,4.9-.8,5.3-3,1.8-9.7,7.6-18.7,4.7-29.1-.8-2.9-1.1-5.9-1.2-8.9-.1-6.3-3.7-11-7.6-15.2-3.4-3.6-5.7-7.5-6.1-12.2-.4-5.1,1.3-10.5-3.6-14.1,1.7-2,3.8.4,5.2-2.4-4.1.2-7.5-2-8.1-5.2-1.1-6-6.2-8.6-9.1-13-1.5-2.1-3.2-4.1-3.5-5.3,5.5-2.4,6.1-10.2,12.7-10.4-1.7,1.9-3,3.5-4.5,5-1.3,1.4-1.7,2.9-.1,4.4s2.2-.1,3.2-1c1.3-1.1,2.7-2,4.1-3-1.1,2.1-2.8,3.5-4.1,5.2-1.9,2.5.5,3.5,2,4.7,1.4,1,3.8,3,4.4.6.8-3.4,4.2-3.3,5.6-5.6,1.2-1.9,3.5-3.2,6.2-3.9-1.4,4.1-7.9,5.1-5,10.6-3-1.1-5.3-.8-6.8,2.5-.4,1-2.1,1.6-.8,2.8,1.2,1.1,2.9,1.2,3.9-.3,1.2-1.7,3.1-3,3.6-5.1,4.6,2.4-2.3,3.5-.4,5.5,3.1-.5,3-.6,4.1-3.3,1.7-4.1,4.2-7.6,8.4-9.5-.2.7-.6,1.1-1,1.6-5,5.1-6.6,5.9-3.6,15.4.2.5,0,1.4-.5,1.8-2.6,2.8-1.1,4.6,1.8,5.8-1.7,1.4-4.2-.2-5,2.3,2.9,2.9,5.3,1.4,7.5-.9,2.1,3.8-3.4,5.4-2.2,8.7,2.5.5,2.8-2.3,4.2-2.5,1.9,4.1,4.9,7.8,4.8,12.5,0,.2.8.6,1.2.8,7.6,3.8,15.8,4.1,23.9,3.2,4.9-.5,6.6-7.1,3.3-10.8-4-4.4-6.5-10.1-11.9-13.3-1.6-.9-1.4-1.3-.7-4.6,5.7,7.7,14.1,13.3,16.6,23.2.5,2,3.3,2.2,4.7,1.2,2.1-1.4-.5-2.4-1.1-3.4-.9-1.6-2-3.2-3.4-5.2,2,.2,2.3,2.3,4,1.4,3.1-1.6-.7-4.2,1-6.2,2,3.5,5.5,4.8,8.5,6.6.8.5.5,2.6,2.3,1.7,1.7-.8.8-2.2.6-3.5-.4-1.8-.5-3.7,1.2-5.1-1,3.7.3,6.2,3.2,8.2,1.2.8,1.6,0,2.4-.7,2.9-2.6.6-4.6-1.5-7.2,5.3,2.7,5.3,2.6,6.6-2.5.3-1.3.3-3,2.7-3,.4,3.8-1.9,8,2.1,11-1.4.1-2.7-2.5-4.3-.2-1.2,1.7,0,2.8,1.1,3.8,1.3,1.3,3.1,2.8,4.8,1.4,2.5-2-.7-2.9-1.4-4.3-.1-.3-.2-.6-.3-.9h0ZM840.5,224.5c2.3.4,4.1.9,5.9,1.1,8.3.9,15.8,3.2,22.1,9.1,4,3.7,8.7,7.2,14.2,8,12.1,1.8,21.1,8.7,29.7,16.7,2.3,2.1,4.6,4.5,7.2,6.1,6.8,4.2,13,9.2,17.9,15.6.8,1,1.9,1.9,3,2.5,7.3,3.9,16,4.5,22.6,10,.5.4,1.6.3,2.3,0,.8-.3.4-1.3,0-1.7-2.2-2.9-1.3-6.8-3.3-9.8-1.9-2.8-1.9-5.9-.9-9.1,1.4-4.6-1.7-9.1-.2-13.7,0-.3-.4-.9-.8-1.2-4.1-4.1-9.4-5-15-2.5-4.5,2-8.6,2.3-13.3-.4-7.3-4.2-13.3-9.9-20.2-14.5-8.5-5.6-15.2-14.1-26.2-15.2-.4,0-1.1-.4-1.1-.7-.8-4.4-4.8-5.5-7.9-6.1-7.3-1.5-14.3-3.9-21.5-6-4.2-1.2-7.3-.6-9.3,4-1.2,2.7-3.2,5-5.3,8.1h0ZM880.4,156.1c-.1-.8-.6-2-.5-3.1.7-5.3-2.4-3.4-4.8-2.6-.8.3-1.4,1.3-2,2.1-2,2.8-4.8,4.6-8,4.5-3.3,0-5.5,2-8.4,2.6-1.8.4-2.7,2.2-2.9,3.8-.3,2.1,1.9,1.9,3.2,2.3,2.7.9,5.4,1.9,7.4,3.9,1.6,1.5,3.2,1.4,5.1.9,6-1.6,10.8-7.9,10.8-14.5h0ZM729.3,362c-1.7-4.6-4.9-9.2,1-12.7,4.7-2.8,4.2-5.6,1.2-9.4-1.8-2.3-2.8-2.2-4.4-.1-2.9,4-5.9,7.9-8.8,12-1.5,2.1-.8,3.5,1,5.4,2.8,2.9,7.6,1,9.9,4.9ZM963.7,254.4c-2-7-10.8-11.6-17.3-9.5-3.5,1.1-5,4.9-4.5,6.9.7,2.9,3.9.5,5.8-.2,3.4-1.2,6.4-.8,9.5.9,1.8,1,3.6,2.4,6.5,1.9h0ZM1105.9,350.8c0-1.7.6-3.5-1.2-4.1-1.6-.5-3.4.3-4.4,1.6-1.2,1.5-1.4,4.1,0,5,3.4,2.1,1.6,4.2.2,5.8-1.3,1.5-1.5,3.2-2.1,4.9-.3,1-1.6,2.3-.3,3.1.7.5,2.2-.1,3.2-.4,1.7-.3,2-1.9,2.7-3.2,2.4-4.1,0-8.8,1.7-12.7ZM759.5,529c-.8,1.7-1.8,2.9-1.9,4.2-.1,1.3-1.1,3.4,1.8,3.6,2.2.1,2.8-.7,3.2-2.7.6-4-.2-6.7-4.4-8.6-3.6-1.6-2.8,2.4-4.6,2.7-.7,0-2-1.7-1.9.5,0,1,1.1,2,1.9,2.8.7.7,1.5.2,2.1-.5.8-1,1.5-2.2,3.9-1.9h0ZM799.5,464.7c-3.4,2.3-5.8,4.6-6,8.5,0,1.2.2,3.1-1.8,2.6-1.8-.5-2.6.1-2.9,1.6-.2,1.1.7,1.8,1.7,2.2,1.5.7,2.6-.2,3.3-1.4,1-1.7,1.3-4.5,2.7-5.1,4-1.8,3.1-4.7,3-8.3h0ZM940.5,393.6c-3,5.5-1.8,8.4,3.4,9.7.6.1,1.2,0,1.5.7.7,1.3,1.6,2.5,2.9.8,1.2-1.5-.2-2.4-1.2-3.2-2.6-2.3-6.4-3.4-6.7-8h0ZM745.6,244.9c-5.5-1.8-8.6,1.6-12.3,4.1,4.6,3.3,4.9,3.2,12.3-4.1ZM864.7,384.3c0-1.1-.8-2-1.7-1.9-2.8.5-4.8,2.6-5.3,5.1-.6,3,3,4.1,4.6,3.9,4.3-.7-.9-5.4,2.5-7.1h0ZM739.4,565.3c-.5-1.5-2-2.5-3-2-2.3,1-4.6,2.7-4.7,5.4,0,1.5,2.1,2.8,3.3,2.4,2.4-.9,3.2-3.6,4.5-5.8h0ZM740.8,551.6c0-1.4-.3-2-1-2.1-1.3-.3-3.6-.4-3.5.5.4,3.3-5,3.7-3.3,7.3.4.8,1.7,1.8,2.4,1,2.1-2.2,3.8-4.7,5.4-6.7h0ZM807.8,464.9c-1.6,1.8-3.3,3.6-4.8,5.4-.6.8-1.4,1.8-.5,2.6.6.6,1.9.8,2.8.7,5.7-.8,3-5.1,2.6-8.8h0ZM842.8,434.5c-.7,2.3,3,2,2.5,4.2-1,.9-1.8-.1-2.7-.3-1.1-.3-2.3-1-3,.5-.5,1.1.5,1.8,1.2,2.5,2,1.9,3.6,2.6,5.4-.5,2.3-3.9,2-4.6-3.4-6.4h0ZM728.3,531.6c.3-.2,1.1-.3,1.2-.6.7-2.6,2.4-4.5,4.1-6.5.6-.7,0-1.5-.7-2.1-.5-.5-1.2-.9-1.7-.3-2.2,2.3-3.6,5-4.5,8,0,.3.7.9,1.1,1.4,0,0,.3,0,.6.2h0ZM750.7,531.1c-1.7,1-3,2.5-3,4.3,0,1.6,1.4,2.8,3,2.8,2.3,0,2.4-1.9,2.2-3.6-.2-1.4-.4-3-2.2-3.5h0ZM880,388c1.6,0,2.7-1.2,2.4-2.4-.6-2.1-3-2.1-4.8-2.8-1.3-.5-1.5.8-1.5,1.8,0,2.7,1.9,3.1,4,3.4ZM735.4,515.3c-1.5-.4-2.3.9-2.5,2.5-.2,1.7.7,3.2,2.3,3.3,1.8,0,3.1-1.3,3.5-3.1.4-1.9-1.1-2.5-3.3-2.8h0ZM781.9,502.2c2.6-2.4,5.6-3.6,5.7-7.1,0-.9-1.4-.9-2.1-.6-2.8,1.3-4,3.6-3.6,7.7h0ZM859.3,396.9c1.7.1,2.9-.6,2.6-1.9-.6-2.4-3.2-2.5-5.1-3.4-1.2-.6-2,.8-1.9,1.6.3,2.6,2.9,2.7,4.4,3.7h0ZM804.2,458c-2.3,2.9-3.2,5.6-1.9,9.8,3-3.5,4.5-6.1,1.9-9.8ZM720.9,572.2c-1.8.2-2.6,1.5-2.8,3-.2,1.7,1.2,2.8,2.7,3,1.6.2,1.9-1.5,2.3-2.7.6-1.9-.8-2.6-2.2-3.3h0ZM851.5,445.2c-.3-1.6-1.3-2.9-2.7-3.1-1.9-.3-2.4,1.9-2.4,3,0,1.5,1.6,2.5,3.1,2.5,1.5,0,1.7-1.3,2-2.4h0ZM761.4,546.8c.6-6.8-.1-7.2-8.2-7.1,2.1,3,6,2.9,8.2,7.1ZM740.5,556.7c-1.6.3-2.3,1.5-2.5,2.7-.2,2.1,1.8,2.6,3.2,3.1,1.3.4,2.2-.9,2.1-2.1,0-1.8-1.2-3-2.9-3.7h0ZM819.1,471.5c2.5.4,4.2-.6,5.8-1.8,1.3-.9,1.4-2.1.3-3.3-1.2-1.2-1.8-.3-2.7.5-1.3,1.2-2.5,2.5-3.3,4.6h0ZM773.9,424.9c3.1-.4,2.7-4.1,5.2-5,.5-.2.2-1.5-.4-2.2-.8-.9-1.5-.3-2,.3-1.9,1.8-3.5,3.8-2.8,6.9h0ZM837.5,442.9c-1.1.4-1.9,1.3-1.6,2.2.7,1.9,2.2,3.3,4.3,3.6,1,.1,1.8-1,1.5-2.1-.6-2-2.3-3-4.2-3.7h0ZM800,480.9c1.5-.6,3.9-.5,4.5-2.7.5-1.5-1.6-2.4-2.2-1.9-1.5,1.4-3.9,1.8-4.9,3.1-1.1,1.3,1.2,1.2,2.5,1.5h0ZM1059.8,315.4c1,1.7,2.8,2.2,4.3,2,2-.2,4.3,1.9,5.9-.6.2-.3.2-1.1,0-1.2-.5-.4-1.6-.8-1.7-.7-2.4,3.4-4.1.7-6.1-.6-.4-.3-1.2-.3-1.8-.2-.3,0-.5.8-.7,1.2h0ZM856.5,382.7c-.3-1.5-1.5-2.3-2.8-2.4-1.8-.1-2.1,1.5-2,2.8.2,1.3.9,2.9,2.3,3,1.9,0,1.8-2,2.5-3.3ZM745.2,557.7c1.5,0,2.1-1.1,2.3-2.1.5-2.2-1.2-2.8-2.8-3.2-1.3-.3-2.5.2-2.4,1.7,0,1.8,1.5,2.8,3,3.6ZM884.2,380.3c-.6-1.9-2.5-2.9-4.2-3.6-1.5-.7-2,1.2-2,2.1,0,2.4,2.3,2.4,3.9,3,1.1.4,1.9,0,2.3-1.5h0ZM856.8,420.7c-.2-1.7-1.3-2.9-2.8-2.9-1.8,0-2.3,1.9-2.2,3.2,0,1.5,1.3,2.8,3,2.6,1.5-.1,1.7-1.7,2-2.9ZM778.5,427.9c-3,1.8-5.3,3.5-3.5,7.3,2.9-1.6,4.4-3.6,3.5-7.3ZM847.6,428.5c-1.7,0-2.2,1.4-2.4,2.6-.3,1.6,1.2,2.3,2.3,2.7,1.8.7,2.3-.8,2.6-2.1.3-1.9-1.3-2.4-2.5-3.2h0ZM1076.9,317.1c-.2-1.1-.6-2.7-1.4-2.2-1.7,1-3,2.6-4.2,4.2-.4.5.6,1.5,1.5,1.4,2.1-.2,3.5-1.4,4.1-3.4h0ZM853.3,432.9c-1.4.2-2.1,1.2-2,2.4,0,2.1,1.8,2.5,3.4,2.7,1.4.2,2.1-.9,2-2.1-.1-2-2.2-2-3.5-2.9h0ZM1087.1,371.6c1.4,3.2,3.4,3.6,5.6,2.6.8-.4,1.4-1.9.8-2.6-1.9-2-3.8.2-6.4-.1h0ZM855.2,446.4c-1.7.1-1.9,1.4-1.7,2.5.3,1.5.2,3.6,2.5,3.6,1.3,0,1.8-1.3,1.8-2.5,0-1.9-.8-3.1-2.7-3.6h0ZM838.7,451.8c-.9-1.5-1.8-3.2-4-3.6-.8-.2-1.2.5-1.1,1.2.2,2,1.3,3.8,2.8,4.8.9.6,1.8-1,2.3-2.3h0ZM832.6,460.7c1.6-.6,2.1-2,2.2-3.4.2-2.5-2.4-1.5-3.5-2.4-.6-.5-1.7,1.3-1.6,2.4.2,1.7,1.3,2.9,3,3.5h0ZM788.5,445.2c-2.2.2-2.2,2-2.5,3.5-.2,1.1,0,3,1,2.8,1.7-.3,3-2,3.3-3.8.2-1.3-.5-2.1-1.9-2.5h0ZM873.8,381.4c-.4-1.6-1.4-2.8-3-2.7-1.5,0-2.1,1.6-2.1,2.9s1.5,2.1,2.7,2.3c1.8.3,1.8-1.4,2.3-2.5h0ZM856.6,408.8c1.8-.7,2.5-2.4,3-4.1.3-1-.8-1.6-1.5-1.5-2.2.1-3,1.9-3.5,3.6-.3,1.1.7,1.7,2,2h0ZM964.9,426.5c.4-1.5-.3-1.9-1.5-2.1-2-.3-2.7.7-2.7,2.5,0,1.1-.1,2.5,1.5,2.5,1.9,0,2.1-1.8,2.6-2.9ZM740.4,528.2c0-1.4-.7-2.2-2-2.3-1.5,0-2.6.9-2.8,2.3-.3,2,1.4,1.9,2.7,2,1.3.1,2.2-.6,2.2-2h0ZM1077.6,512.1c2.9,3.2,6.6,5.2,10.8,6-3.2-2.7-6.8-4.7-10.8-6Z"/>
  <path class="cls-1" d="M877.7,172.9c4.9-.3,9.8-.8,14.7-.9,33.9-.2,67.8,0,101.6-1.1,8.8-.3,17.6-.2,26.4-.2s3.6-.3,3.6,1.6c0,1.7-2,1.9-3.5,1.8-16.4-.4-32.9.5-49.3.2-22.5-.3-44.9.1-67.4.5-8.7.1-17.4.3-26.1-.5,0-.5,0-1.1,0-1.6h0Z"/>
  <path class="cls-1" d="M960,186.4c-11.7,0-23.3,0-35,0-2.2,0-5.2-1.2-5.8,2.8-.2,1.1-1.4,1-2,.4-2.5-2.7-6-2.4-9.2-3.2-.7-.2-1.4-.1-1.5-1-.2-1,.6-1.6,1.4-1.7,1.8-.2,3.7-.6,5.5-.5,12.8,1.1,25.5-.4,38.3-.4,14.8,0,29.6-.1,44.4-.1,1.5,0,3.9-.7,4,1.7,0,2.9-2.7,1.8-4.2,1.8-12,.1-24,0-36,0h0c0,0,0,0,0,0Z"/>
  <path class="cls-1" d="M957.2,198.3c.8-2,1.9-1.7,2.8-1.7,24.3-.3,48.5-.5,72.8-.8,13.4-.2,26.8-.5,40.2-.8,1,0,2,0,3,0,1,0,2.2.2,2.3,1.4.1,1.2-1.1,1.7-2,1.9-1.5.3-3,.2-4.5.2-31.6,0-63.2-.3-94.8.6-6.5.2-13-.5-19.8-.8h0Z"/>
  <path class="cls-1" d="M873.3,525.2c-1.7,3-4.4,2.2-6.7,2.2-21.2,0-42.5.2-63.7.1-6.7,0-13.2,1.2-19.9.5-1.7-.2-3.8.4-3.7-2,0-2.2,2.3-1.4,3.6-1.4,23.5-.1,47-.1,70.5-.3,2.4,0,6,1.5,6.7-3,.1-.7,1.3-.8,1.7-.4,3.1,3.3,7.7,2.5,11.5,4.3h0Z"/>
  <path class="cls-1" d="M1029.1,117.3c-12.7,1.4-25.1.8-37.5,1-16.5.3-33,.2-49.4.2-3.3,0-6.7,0-10-.1-1.4,0-3.5.2-3.4-1.8.1-1.7,2.1-1.1,3.3-1.1,19.8,0,39.6,0,59.4-.1,10.5,0,21-.4,31.5-.5,2,0,4.4-.9,6.1,2.5Z"/>
  <path class="cls-1" d="M1008.2,183.9c3.7-.3,7.4-.7,11.2-.8,13-.2,26.1-.3,39.1-.4,1.3,0,2.7.1,4,.2,1.4,0,2.9.3,2.8,2.1-.2,2.3-2.2,1.5-3.5,1.5-14.8,0-29.6,0-44.4,0-3.1,0-6.3.3-9.1-2.5h0Z"/>
  <path class="cls-1" d="M683,528.1c-1.6-1.1-3.3-2.2-5-3.4-1.9,4.1-3.7,8-5.9,12.7-.8-2.8,1.1-4.8-.8-7-2.1-2.3-3.5-1.1-6.2.8,1.4-3.9,4-7.1.6-9.6-2.3-1.8-2.4,2.1-4.5,2.3,1.2-3.4,5-6.4,1-10.2,2.2,1.7,4.5,0,7.1-5.4.5,3-.9,5.1-2,7.1-1,2-1.2,3.6-.2,5.6,1.4,2.7,2.4,3.2,4.3.3,2.5-3.8,5.4-7.4,8.6-10.8-1.3,5.2-5,9-7.8,13.2-2,2.9-1.7,4.7,1.1,6.7,3.4-3.8,2.2-9.6,6-13.3-2.5,5.1,2,7.6,3.6,11.1h.1q0-.1,0-.1Z"/>
  <path class="cls-1" d="M891.1,512.5c-12.6,2.2-25.3,2.3-38,1.8-2.3,0-4.6,0-6.9,0-1,0-2.2.1-2.2-1.3,0-1.4,1.2-1.4,2.2-1.5,8.2-.3,16.6,0,24.7-.9,7-.9,13.4,2.1,20.2,1.8h0Z"/>
  <path class="cls-1" d="M1083.5,546.2c-.4,2.6-2.3,2.1-3.9,2.2-14.8,0-29.6,0-44.4,0-1.1,0-2.7.4-2.6-1.3,0-1.1,1.3-1.3,2.3-1.3,15.8,0,31.6,0,47.3,0,.4,0,.8.3,1.2.5h0Z"/>
  <path class="cls-1" d="M815.1,163.7c-16.6,1-33.2.7-49.9.6v-2.4h49.9v1.8h0Z"/>
  <path class="cls-1" d="M1014.2,547.7c-.5,1.8-2.2,1.6-3.6,1.6-14.4,0-28.9,0-43.3,0s-2.3.4-2.5-.9c-.2-1.7,1.3-1.7,2.4-1.7,15.1,0,30.2,0,45.4,0,.6,0,1.4,0,1.6,1h0Z"/>
  <path class="cls-1" d="M1140.1,236.5c-16.5.9-33,1.2-49.5.4,0-.7,0-1.5,0-2.2h49.4v1.7s0,0,0,0Z"/>
  <path class="cls-1" d="M996.7,164c4.5-3.2,46.3-2.8,49.6.3-16.9,1.2-33.2-.2-49.5-.3h0Z"/>
  <path class="cls-1" d="M747.2,163.4c-.9,1.8-2.5,1.7-3.9,1.7-14,.1-28,.3-41.9.3-1.7,0-4.8,1.1-4.9-1.4,0-2.1,3-1.3,4.7-1.3,14.3-.1,28.6-.1,43-.1,1,0,2-.2,3.1.9h0Z"/>
  <path class="cls-1" d="M1046.7,238.4c-6.6,0-13.6,0-20.5,0-1.5,0-4,.7-4-1.6s2.4-1.2,3.7-1.2c14.6-.1,29.3-.2,43.9-.3,1.1,0,2.8-.3,2.6,1.3,0,1.4-1.8,1.2-2.9,1.2-7.5,0-15-.3-22.9.6Z"/>
  <path class="cls-1" d="M618,305.8c-2.7,5-7.7,8.1-10.6,13.1-2.5-3.9,5.8-5,1.7-9-2-1.9-3.5-.6-5.9,1.8,1.3-3.5,1.2-5.4,3.9-6.9,5.5-3,4.9-6.3-1.1-9.4,1.7-3.2,4.9-4.5,7.9-6.6-.2,3.5-6.7,3.4-3.9,7.5,3.2,4.8,4.8-2.2,8.3-1.5-3.3,2.6-4.4,5.2-.9,8-3.4-2.4-5.8-1.2-7.9,2-1,1.5-1.3,2.4.2,3.7,3.4,2.9,4.9-.7,7.1-1.9.4-.2.8-.6,1.2-.9h0Z"/>
  <path class="cls-1" d="M647.8,401.6c1-2.1,2-4.3,2.9-6.4-5.4,3.8-8,9.6-11.7,14.6,5.8-11.9,13.7-22.3,22.7-32.9-1.7,6-9,19.3-13.9,24.7h0Z"/>
  <path class="cls-1" d="M1049.8,509.7c-12.2-7.8-23.8-16.4-33.2-27.7,10.2,10.3,22.5,18,33.2,27.7Z"/>
  <path class="cls-1" d="M650.1,496.4c4.1-14.1,6.5-28.9,16.3-40.7-6.3,13.3-10.8,27.2-16.3,40.7Z"/>
  <path class="cls-1" d="M989.8,609.7c-11.9,0-22.4,1.8-33.6-.2,5.8-2.3,27.3-2.4,33.6.2Z"/>
  <path class="cls-1" d="M790.8,101.6c10.7-.3,21.4-1.9,32.1.2-10.7,1.6-21.4,2.3-32.1-.2Z"/>
  <path class="cls-1" d="M660.8,396.5c-7.8,11.9-14.2,24.5-20.6,37.1,4.2-13.9,12.2-25.6,20.6-37.1h0Z"/>
  <path class="cls-1" d="M643.4,458.6c4.9-13.7,10.8-26.7,18.6-38.8-5,13.5-13.6,25.4-18.6,38.8h0Z"/>
  <path class="cls-1" d="M682.9,528.3c2.9,2.7,5.8,5.4,9.2,8.7-3,.2-3.6-1.7-5-2.5-1.3-.8-2.6-3.9-4.1-1.6-1.4,2.1-4.6,5.9-1.1,7.8,6.4,3.5.3,4.5-.4,7.8-1.1-3.1,1.2-5.3-1.4-7-2-1.3-2.3,1.5-4.2.9.9-5.5,5.7-9,7-14.2,0,0,0,.1,0,.1h0Z"/>
  <path class="cls-1" d="M883.7,594.1c-3.7,2.6-6.9,2.2-9.9,2.1-4-.1-8-.4-11.9-.6-.8,0-1.7-.2-2-1.2-.2-.8.2-1.4.9-1.4,7.3.1,14.7-.9,22.9,1.1Z"/>
  <path class="cls-1" d="M1066.6,169.8c2.8,0,5.6,0,8.4,0,1.1,0,2.1.3,2.2,1.5,0,1.2-1.1,1-1.8,1.1-5.9.7-11.9,1.3-17.8.1-.9-.2-2.3.2-2.1-1.3.1-1.1,1.2-1.5,2.2-1.5,3,0,5.9,0,8.9,0h0q0,.1,0,.1Z"/>
  <path class="cls-1" d="M1066,523.8c-3.6-5.1-9.8-7-13.7-12,10.3,5.9,19.9,13.1,30.7,18.4-6-1.7-11.2-5.1-17.1-6.6h.2q0,.1,0,.1Z"/>
  <path class="cls-1" d="M937.1,512.2c-.8,2.1-2.1,2.2-3.4,2.2-5.6,0-11.3,0-16.9,0-1,0-2.2,0-2.4-1.2-.2-1.2,1.1-1.6,2-1.7,6.9-.9,13.7-.8,20.6.8Z"/>
  <path class="cls-1" d="M896.5,117.9c1.2-3.1,2.6-3.1,3.9-3.1,5.6,0,11.2.1,16.8.2,1.3,0,2.6.4,2.7,1.7.1,1.8-1.5,1.2-2.5,1.2-6.7,0-13.4,0-20.8,0h0Z"/>
  <path class="cls-1" d="M703.6,196.8c6.5-1.6,13-1.1,19.5-1.1.7,0,1.3.3,1.4,1.1.1,1.1-.6,1.5-1.5,1.6-6.5.4-13.1.9-19.5-1.6h0Z"/>
  <path class="cls-1" d="M1029.4,268.6c6.4,0,12.8,0,19.2,0,.6,0,1.4.1,1.5,1,.1,1-.6,1.6-1.4,1.6-6.5.4-13.1.9-19.5-.8,0-.6.1-1.3.2-1.9h0Z"/>
  <path class="cls-1" d="M808.1,548.2c3.8-3.2,14.7-3.2,18.9-.3-6.4,1.3-12.2.6-18.9.3Z"/>
  <path class="cls-1" d="M647.1,434.2c3.8-7.1,4.5-15.8,10.9-21.6-3.4,7.3-5.4,15.4-10.9,21.6Z"/>
  <path class="cls-1" d="M665.8,470.6c-1.6,7.4-5.1,14.2-7.3,21.4-.9-8.2,4.2-14.5,7.3-21.4Z"/>
  <path class="cls-1" d="M619.8,451.1c-5.2-8.4,3.7-11.5,4.9-17.1-.7,5.6-2.5,10.9-4.9,17.1Z"/>
  <path class="cls-1" d="M667.3,441.7c-4.6,9.4-9.3,18.8-13.9,28.2,3.5-9.9,7.5-19.7,13.9-28.2Z"/>
  <path class="cls-1" d="M811.1,116.6c-5.5.8-10.9,1.4-16.2-.5,5.5-1.2,10.9-2.2,16.2.5Z"/>
  <path class="cls-1" d="M970.9,163.6c-5.9,2-11.9,1.6-17.8.2,5.9-2.7,11.9-1.7,17.8-.2Z"/>
  <path class="cls-1" d="M984.5,594.8c-5.3.7-10.7,2-16-.3,5.3-1.6,10.7-2,16,.3Z"/>
  <path class="cls-1" d="M896.1,486.1c-4.3,3.2-7.6,2.5-11.5.7,3.6-3.7,7.1-1.4,11.5-.7Z"/>
  <path class="cls-1" d="M608.2,380.2c-.7,4.5-1.2,9-3.6,13,1-4.3-2.6-9.9,3.6-13Z"/>
  <path class="cls-1" d="M692.8,516.6c-4.2-4.1-6.4-9.8-10.8-13.9,5.2,3.3,8.2,8.4,10.8,13.9Z"/>
  <path class="cls-1" d="M648.4,464.3c.2-5.3,2.3-9.8,6.1-13.6-2,4.5-4.1,9.1-6.1,13.6Z"/>
  <path class="cls-1" d="M627.2,299.2c3.8,3.1,7.5,6.1,11.3,9.2-5.1-1.3-8.4-4.9-11.3-9.2Z"/>
  <path class="cls-1" d="M618,394.1c-3.4,3.8-6.7,7.6-10.1,11.4,1.7-5.3,6.1-8.2,9.1-12.3.3.3.7.6,1,.9h0Z"/>
  <path class="cls-1" d="M658.2,442.9c.2-3.7.6-7.2,4.1-10.3-.2,4.5-1.3,7.8-4.1,10.3Z"/>
  <path class="cls-1" d="M623.9,249.6c4.5-2.3,9.1-4.1,14.3-3.2-4.8,1-9.7,1.5-14.3,3.2Z"/>
  <path class="cls-1" d="M1012.1,477.8c-2.2-3-6.7-3.7-8.9-8.4,4.9,1.9,7.2,4.8,8.9,8.4Z"/>
  <path class="cls-1" d="M739.9,421.5c.4-3.8,3.3-4.7,6.7-6.7-1.3,4.1-4.4,5-6.7,6.7Z"/>
  <path class="cls-1" d="M663.9,488.5c-.9-4.8,2-8.1,4.6-11.5-1.5,3.8-3.1,7.6-4.6,11.5Z"/>
  <path class="cls-1" d="M724.1,255.9c-2.9,1.5-4.4,4.9-7.8,5.9,1.4-3.4,3.8-5.6,7.8-5.9Z"/>
  <path class="cls-1" d="M628.1,470.4c.3-3.1,1.3-5.9,4-9.3-.3,4.4-1.8,7-4,9.3Z"/>
  <path class="cls-1" d="M703.5,505.8c-2.7-3.7-5.6-7.2-6.9-11.7,2.6,3.8,6.2,6.9,6.8,11.8h0c0-.1,0-.1,0-.1Z"/>
  <path class="cls-1" d="M617.1,379.2c-.4,4-1.4,7.6-4.4,10.4,1.5-3.5,3-6.9,4.4-10.4Z"/>
  <path class="cls-1" d="M793.4,344.4c3.2,6.4,5.7,12.8,12.6,15.2,2.9,1,3.8,2.1,2.9,5-.3.9,0,2,.1,3,.4,2.8,1.5,4.2,3.8,1.4,3.1-3.6,6-2.2,9.2.5-5.9-3.4-8.4.6-10.6,4.5-2.2,3.8.3,7.2,1.5,10.9,1.2-1.8,1.8-4.8,1.7-9,1.1,4.4,3.8,2.8,7.2,1.5-2.3,3.3-5.5,5.2-2.3,8.8,2.3,2.6,3.4,0,5.5-.6-1.2,3.1-3.3,5.1-5.1,7.3-2.5,3.1-5,6.2-6.5,10-.4.9-.4,2.2-1.8,1.8-1.6-.4-1.2-1.9-1-2.9,1-3.7,3.6-6.3,6.2-8.9.9-1,2-1.9,2.5-3,.7-1.6-1-2.2-1.9-3.1-1.2-1.2-2-.6-2.8.6-1.3,2.1-2.7,4.2-3.8,6.4-.8,1.6-1.5,3.3-4.3,3.5,2.5-4.5-.7-8.5-.1-13.2,1.5,2.2.8,4.9,2.8,6.9,4.7-4.7,0-9,0-14.6-5.4,5.7-8.2,11.6-10.9,17.9-1.3-4.1-.6-6.4,3.4-12.7,1-1.6,3-2.9,2-5.3-.4-1,0-2.6-1.8-2.5-1.1,0-1.7,1.1-1.8,2.1-1,5.8-7.5,8.4-8.2,14.4-1.7-4.1.8-6.9,2.2-10,1-2.1,2.7-3.9,2.2-6.4-.2-.8-.3-1.8-1.2-2-.9-.2-1.7.7-1.8,1.4-.2,4.3-5.4,5.1-6.1,9.1-1.4-4.3,3.8-7.9.7-12.4-4,3-5.8,7.6-9,12.5-.7-9.8,10.6-13.9,8.1-23.9-3.2,4.5-6.1,8.5-9.7,13.5-.3-5.7,4.6-8.1,5.1-12.8-3.8,1.1-3.8,5.2-7.6,7.1,4.5-9.7,10.5-16.5,18.3-21.9h0ZM789.7,361.4c7-3.5,7.9-6.8,3.8-12.2-.7-.9-1.3-2.4-2.5-.8-.9,1-2.8,2.5,0,3.5,1.2.4,1.5.7.6,1.4-3,2.2-2,5.1-1.7,8.1h0ZM796,363.5c-.3-1.1,0-3.2-1.3-2.7-3,1.1-4.3,3.9-4.4,7.1,0,1-.2,3.1,1.3,2.6,3.2-1,4.2-4,4.4-7.1h0ZM808.2,371.5c-.3-.9.3-2.8-1.3-3-1.5-.2-2.6,1.3-2.6,3,0,1.5-.3,3.8,1.8,3.8,1.6,0,1.7-2.1,2.1-3.8h0ZM799.4,372.1c1.4-2.4,3.8-3.9,2.8-6.8-.4-1-1.3-.4-2,.1-2,1.7-3.6,3.5-.8,6.6h0Z"/>
  <path class="cls-1" d="M819.2,307c.5,4.7.5,9,.9,13.2.9,9.7,7.2,13.9,15.3,16.7,2.4.8,4.8,1.1,2.9,4.9-.8,1.6.4,4.1.7,6.5-4.8-1.1-2.3-6.3-5-8.1-2.3.8-.4,3-1.5,3.8-1.5,1.1-2-1.3-3.3-1.5-.8,2.5,1.2,4.5.8,7.3-4.5-4.1-9.9-7.2-6.5-14.4.4-.9.5-2.2-.7-2.5-1.4-.4-1.5,1-1.7,1.9-.7,3.2-1.6,6.4-2,9.6-.3,2.9.9,4.9,3,7.4,4,4.8,10.5,5.8,14,10.8-7.2-2.4-14.6-4.5-19.2-11.3-1.1-1.7-4.8-3.6,0-5.5.5-.2.2-2.5.4-4.5-2.5,4.1-4.8,4-6.2.3-3.1-8.2-4-16.6.6-24.6,1.9-3.4,2.2-8.1,7.2-9.9h0Z"/>
  <path class="cls-1" d="M861,301.2c.7,5.5-4.7,7.1-7,10.6-.9,1.3-3,2.4-1.3,4,1.4,1.3,2.5-.8,3.6-1.6,2.5-1.9,4.4-4.9,9.7-4-5.7,2.1-8.6,5.3-10.3,9.6-.8,2-1.9,2-3.3.4-1-1.1-1.7-3.4-3.7-1-1.5,1.9-1.8,3.9.5,4.9,5.8,2.6,1.8,4.7,0,7.3-1.2-2.6.6-8.4-5.5-4.4-1.4.9-1.4-1.2-1.4-2.3q0-4-4-4.7c-1.5-.3-1-1.5-.8-2.4.4-1.8.6-3.6-1.4-4.3-1.9-.7-2.3,1.4-3,2.6-.5.9-1,1.9-2.2,1.1-.8-.5-.8-1.7-.4-2.2,3.7-4.2,1.6-8.2-.4-12.2-.7-1.5-.7-2.9.9-3.9,2,.6.6,2.3,1.2,3.3.9,1.5,1.1,4.1,3,4.1,2,0,3.5-2.3,3.9-4.1.3-1.3.6-4.4-2.8-3.6-1.2.2-.8-.8-.7-1.2.3-1.2,1.2-2,2.3-2.4.9-.3,1.8,0,2,.8,1.8,7.4,4.1,1.5,5.8,0,3.5-3.1,5.9-7.5,11.2-9.4,0,2.8-2,3.6-2.9,5-.6.9-1.3,1.8-.4,2.6,1,1,1.8,0,2.5-.7,2-1.8,3.5-4.3,7.4-3.7-5.9,2.2-8.1,5.9-5.2,11.8-2.6.1-5.3-2.2-6.6,1.5-.5,1.4,0,2.2.8,3.1.9,1.1,1.9,1.2,3,.2,1.8-1.7,4.3-2.5,5.2-5h0s0,0,0,0ZM845.2,311.7c-1.5,1-3.2,2.2-3.1,4.1,0,1.6,1.5,3.6,3,3.3,1.6-.3,2.7-2.3,2.7-4.1,0-1.5-1.1-2.6-2.6-3.2h0ZM841.2,305.6c-2,1.2-2.9,3.1-3,5.3,0,1.1.9,2.3,1.7,1.9,1.9-1,3.5-2.6,3.5-4.9,0-1-.7-2.2-2.2-2.3h0Z"/>
  <path class="cls-1" d="M948.3,343.5c-.8-3.2,2.4-6.4-1.4-9.5.2,9-7.3,4.6-11.1,7.1.3-4.6,4.5-9.7,8.3-10.3,3.5-.5,6,.9,7,4.1,1,3.2,1.2,6.5-2.7,8.6h0Z"/>
  <path class="cls-1" d="M1096.2,398.5c9.5-9.5,16.3-20.4,17.8-34,1.8,15.2-6.8,25.2-17.8,34Z"/>
  <path class="cls-1" d="M958.8,323.6c-.5-4.3-6.5-4.5-6.7-8.9-2.8,1.1-6.1-5.1-8.6.9-1.2,2.8-1.8-1.5-3.2-.6-1.1.6-1.6,2.1-3.2,1.9,1.9-6,9.2-8.8,14.7-6,5.2,2.8,5.8,7.9,7,12.6h0Z"/>
  <path class="cls-1" d="M867,315.9c-1.4,2-2.8,4-4.2,6-1.3,1.8-3.1,2.9,0,5.5,2.4,2-1.9,4-2.1,6.5-2.6-1.6,1.1-5.4-1.9-5.5-2.5-.1-2.7,3.3-3.6,5.4-.5,1.1-.5,2.6-2.3,3.4-1.9-5.4,3.4-8.7,3.9-13.5.5-3.9,6.8-4.8,10.3-7.7h0Z"/>
  <path class="cls-1" d="M858,267.8c-.9,3-3.5,3.5-5.4,4.7-1.6,1.1-3.4,2-4.1,4.1-.5,1.3,2.7,3.7-.7,3.6-2.4,0-5.2-1-7.1-3-.6-.7-.6-2,.2-2,6.6,0,10-6.8,17.1-7.5h0Z"/>
  <path class="cls-1" d="M914.2,292.1c1.3,2.3-.6,3.6-1.6,5.3-2.6,4.1-5.5,7.9-9.4,10.9-.7.5-1.6,1.4-2.6.4-.7-.7-.7-1.3,0-2.1,4.5-4.8,9-9.6,13.5-14.4h0Z"/>
  <path class="cls-1" d="M823.5,283.3c-4.5,1.3-7.9-2.2-11.9-2.5-4.8-.3-5.3,5.4-9.4,6.6,4-9.9,12-12.4,21.3-4.2h0Z"/>
  <path class="cls-1" d="M764.2,324.8c2.3-8.9,8.6-14,16.4-17.8-5.9,5.5-12.2,10.7-16.4,17.8Z"/>
  <path class="cls-1" d="M844.5,291.7c3.3-5.6,8.6-9.2,12.9-13.8.6-.6,1.7-1.5,2.6-.6,1.2,1.1.1,2.1-.7,3-4.4,4.5-10.2,7.2-14.9,11.5Z"/>
  <path class="cls-1" d="M816,412c0-6.3,8-16.5,13.7-17.9-5.1,5.5-8.8,11.5-13.7,17.9h0Z"/>
  <path class="cls-1" d="M987.5,374.1c2.8-6.3,9.5-9.3,12.2-15.7-.8,7.8-6.3,11.9-12.2,15.7Z"/>
  <path class="cls-1" d="M856.3,261.4c-4.3,5.7-10.2,7.3-13.8,11.5-.5.5-1.2.4-1.7-.2-.5-.5-.7-1.4-.1-1.8,4.8-3,8.5-7.9,15.7-9.6h0Z"/>
  <path class="cls-1" d="M931.9,350.6c2.2-1.6,3.7-.3,5.1.2,3.2,1.2,6.3,1.6,9.7,1,.9-.2,2.2-.4,2.4.9.2,1.2-1.1,1.4-1.9,1.8-3,1.7-5.8,1.4-8.7-.6-2-1.3-4.2-2.2-6.6-3.4h0Z"/>
  <path class="cls-1" d="M981.6,371.7c2.3-6.3,9-9.7,10.3-16.8.6,8.1-5.7,11.9-10.3,16.8Z"/>
  <path class="cls-1" d="M790.1,293.3c-.1-8.3,6-11.8,12.1-15.4-4.7,4.6-9.6,9-12.1,15.4Z"/>
  <path class="cls-1" d="M820.6,416.2c-.4-5.1,3.1-9.6,11.3-15-3.5,5.2-8.8,9-11.3,15Z"/>
  <path class="cls-1" d="M967.4,363.4c3.5-4.3,7-8.6,7.8-14.5,3.6,3.7.2,10.2-7.8,14.5Z"/>
  <path class="cls-1" d="M933.9,381.1c-4.2,3.5-8.2,7-8.7,13-2.5-.3-2.7-2-2.2-3.6,1.7-5.2,5.9-7.8,10.8-9.5h0Z"/>
  <path class="cls-1" d="M773.7,331.9c-5.6,4.5-11.2,8.9-14.4,15.7,1.1-8.5,8.2-11.7,14.4-15.7Z"/>
  <path class="cls-1" d="M763.2,354c-.2-6.7,3.7-11.1,11.9-13.8-5.8,2.7-8.3,8.3-11.9,13.8Z"/>
  <path class="cls-1" d="M772.2,349.7c-3.5,4-6.7,8.1-9.9,12.3.7-6.2,5-9.5,9.9-12.3Z"/>
  <path class="cls-1" d="M934.8,330.5c-.1-4.8,3.6-5.4,6.3-6.8,2.2-1.1,4.1-.7,5.6,3.1-5.5-2.9-8.1,1.4-11.9,3.7h0Z"/>
  <path class="cls-1" d="M994.5,376.1c1.8-4.7,7.2-6.6,8.8-11.5.2,6.2-4.6,8.6-8.8,11.5Z"/>
  <path class="cls-1" d="M907.5,284.8c.7,6.2-3.8,9.7-7.3,13.8,2.4-4.6,4.8-9.2,7.3-13.8Z"/>
  <path class="cls-1" d="M1008.5,391.4c4.2-3.6,6.4-7.3,9.3-11,.2,5.5-3,9.7-9.3,11Z"/>
  <path class="cls-1" d="M977.4,396.5c-3.3,3.6-6.7,7.1-8.6,12.1-1.4-4.9,1.7-9.2,8.6-12.1Z"/>
  <path class="cls-1" d="M826.7,423.9c1.3-5.9,3.8-9.1,8.4-10.6-3,2.9-3.8,7.4-8.4,10.6Z"/>
  <path class="cls-1" d="M932.1,343.6c4.2.9,8.8-.9,13.5,2-5.3,1.5-9.5,1-13.5-2Z"/>
  <path class="cls-1" d="M1010.6,374.6c1.3,6-1.5,10-7.8,10.9,3.4-3,7.1-5.9,7.8-10.9Z"/>
  <path class="cls-1" d="M917.2,387.5c.9-7,6.7-9.2,11.6-12.3-3.6,4.3-10,6.1-11.6,12.3Z"/>
  <path class="cls-1" d="M861,301.2c5.2-2.7,10.4-5.4,15.6-8,.2.4.4.8.6,1.3-5.5,2-9.3,7.8-16.2,6.8h0Z"/>
  <path class="cls-1" d="M899.1,380.2c.5-5.6,3.5-10.3,5.8-15.3-1,5.4-2.4,10.7-5.8,15.3Z"/>
  <path class="cls-1" d="M832.1,408c-3.5,3.3-5.4,7.8-8.8,11.1,0-6,4.9-8.1,8.8-11.1Z"/>
  <path class="cls-1" d="M875.9,333.9c-3.3.7-5.5,2.4-6.3,5.7-.2,1-1.3,2-2.7,1.1-1.6-1-.5-1.9,0-2.9,2-3.4,4.9-4.9,9-4Z"/>
  <path class="cls-1" d="M749.4,358.4c-2.2,3.2-4,5.9-5.8,8.5-.4.6-.7,1.7-1.8,1.1-1.1-.5-1.1-1.7-.6-2.6,1.7-3.2,4.1-5.7,8.2-7.1h0Z"/>
  <path class="cls-1" d="M777.3,317.5c-5.4,2.3-7.6,7.5-10.9,12.7.1-6.4,4.7-11.5,10.9-12.7Z"/>
  <path class="cls-1" d="M917.2,299.1c0,5.9-4.2,9.3-7.6,13.1,1.2-5.2,6.8-7.6,7.6-13.1Z"/>
  <path class="cls-1" d="M984.2,399.3c-2.3,3-4.5,5.9-6.7,8.9-1.2-4.3.6-6.7,6.7-8.9Z"/>
  <path class="cls-1" d="M979.8,365.1c2.4-3.5,4.7-7,7.7-11.4-.2,6.1-4.2,8.6-6.6,12-.4-.2-.8-.4-1.1-.6h0Z"/>
  <path class="cls-1" d="M782.5,347.4c-3.1,3-4.3,7.4-8.5,11.1,1.2-6,4.4-8.9,8.5-11.1Z"/>
  <path class="cls-1" d="M788.3,280.9c-4.1,3-4.8,8.5-9,13.2,1.5-6.6,4.2-10.7,9-13.2Z"/>
  <path class="cls-1" d="M1007.2,371.9c-1.2,3.1-3.3,5.4-6.5,6.9,0-2,2.1-4.3,6.5-6.9Z"/>
  <path class="cls-1" d="M954.4,452.2c2.7,4.2,6.8,7.8,6.6,13.4-1.6-4.8-5.2-8.5-6.6-13.4Z"/>
  <path class="cls-1" d="M1034.5,387.8c-.6,3.4-1.4,6-3,8.3-.5.7-1.1,1.5-1.9,1.1-1-.4-.7-1.3-.2-2,1.4-2.4,1.8-5.3,5.2-7.3h0Z"/>
  <path class="cls-1" d="M941,417.7c-1.2,4.3-4.1,7.9-4.2,12.5-1-4.9.8-9,4.2-12.5Z"/>
  <path class="cls-1" d="M956.2,495c1.5-1.8-.2-4.1,1.3-6.4,1.8,3.1,2.1,6.3,2.1,9.6-2.5-.1-1.9-2.7-3.4-3.4,0,0,0,.1,0,.1h0Z"/>
  <path class="cls-1" d="M914.2,326.8c1.3-3.4,3.8-5.8,7.1-7.5-1.6,3.1-3.6,5.9-7.1,7.5Z"/>
  <path class="cls-1" d="M994.9,404.8c-1.1,2.2-2,4-2.9,5.7-.7,1.1-1.8,1.6-2.9.8-1.2-1,0-1.6.6-2.2,1.4-1.5,2.2-3.7,5.2-4.2Z"/>
  <path class="cls-1" d="M934.3,388.4c-1.5,3.3-4.3,5.8-5.7,9.1-.6-4.7,2.7-6.8,5.7-9.1Z"/>
  <path class="cls-1" d="M848.5,339.4c0,1.4-1,2-2,1.7-1.6-.5-4,.1-4.5-2.2-.2-1.1,1.3-1.3,2.3-1.3,1.6,0,3.3-.1,4.1,1.8h0Z"/>
  <path class="cls-1" d="M1050,401.1c-.5-3.5,0-6,2.8-7.7.7,4.2.6,4.4-2.8,7.7Z"/>
  <path class="cls-1" d="M1024.3,384.7c0,1,0,1.6-.2,1.9-.8,1.6-1,3.6-2.7,4.5-.6.3-1.3-.4-1.2-1.1.2-2.4.8-4.5,4.1-5.4h0Z"/>
  <path class="cls-1" d="M988.9,402.6c-1.3,1.9-2.7,3.7-4.1,5.5-.1.2-.6,0-1.3.1-.2-3.6,2-5.1,5.4-5.7h0Z"/>
  <path class="cls-1" d="M839.8,178.5c-1.2,4.1-1.7,7.8,1.1,11.5-5.4-2.4-5.8-7.5-1.1-11.5Z"/>
  <path class="cls-1" d="M800.3,205.3c4.6-1.6,9.4-1.7,14.3-1.1-4.6,1.8-9.5,1.4-14.4,1.1,0,0,0,0,0,0h0Z"/>
  <path class="cls-1" d="M764.2,268.7c2-3.1,3.7-6.5,8.4-7.1-2.4,2.7-4.8,5.3-7.3,8-.4-.3-.7-.6-1.1-.9h0Z"/>
  <path class="cls-1" d="M862.6,136.6c-.2-4.7,4.3-5,6.8-7.2-3,1.7-2.5,6.8-6.9,7.1h.1c0,.1,0,.1,0,.1Z"/>
</svg>